<?xml version="1.0" encoding="UTF-8"?>
<!DOCTYPE svg PUBLIC "-//W3C//DTD SVG 1.1//EN" "http://www.w3.org/Graphics/SVG/1.1/DTD/svg11.dtd">
<!-- Creator: CorelDRAW X7 -->
<svg xmlns="http://www.w3.org/2000/svg" xml:space="preserve" width="42.3332mm" height="42.3332mm" version="1.1" style="shape-rendering:geometricPrecision; text-rendering:geometricPrecision; image-rendering:optimizeQuality; fill-rule:evenodd; clip-rule:evenodd"
viewBox="0 0 4233 4233"
 xmlns:xlink="http://www.w3.org/1999/xlink">
 <defs>
  <style type="text/css">
   <![CDATA[
    .fil0 {fill:#009846;fill-rule:nonzero}
   ]]>
  </style>
 </defs>
 <g id="Ebene_x0020_1">
  <metadata id="CorelCorpID_0Corel-Layer"/>
  <path class="fil0" d="M2373 2804l0 -1375 501 0 0 1375 -501 0 0 0zm1723 -296l0 -799 -228 0 0 -290c0,-189 -154,-343 -342,-343l-3047 0c-188,0 -342,154 -342,343l0 1395c0,190 154,343 343,343l3045 0c189,0 343,-153 343,-343l0 0 0 -306 228 0zm-2346 296l0 -1375 501 0 0 1375 -501 0 0 0zm-625 0l0 -1375 501 0 0 1375 -501 0 0 0zm-624 0l0 -1375 501 0 0 1375 -501 0 0 0zm-21 125c-63,0 -114,-51 -114,-115l0 -1395c0,-63 51,-114 114,-114l3045 0c63,0 114,51 114,114l0 1395c0,64 -51,115 -114,115l-3045 0z"/>
 </g>
</svg>
