<?xml version="1.0" encoding="UTF-8"?>
<svg id="Icon" xmlns="http://www.w3.org/2000/svg" viewBox="0 0 24 24">
    <g fill="currentColor">
        <path class="cls-1" d="M15,14v-.5c0-.28.22-.5.5-.5h2.5c.28,0,.5.22.5.5v.5h1v-2l-4.5-4v-.5c0-.28.22-.5.5-.5h2.5c.28,0,.5.22.5.5v.5h1v-2l-4.5-4h-6l-4.5,4v2h1v-.5c0-.28.22-.5.5-.5h2.5c.28,0,.5.22.5.5v.5l-4.5,4v2h1v-.5c0-.28.22-.5.5-.5h2.5c.28,0,.5.22.5.5v.5l-3.14,7h-3.86v1h20v-1h-3.86l-3.14-7ZM15,3.3l3,2.7h-2.5c-.28,0-.5-.22-.5-.5v-2.2ZM15,9.3l3,2.7h-2.5c-.28,0-.5-.22-.5-.5v-2.2ZM16.33,19.37l-3.62-3.09,1.62-1.34,2,4.43ZM10,3.5c0-.28.22-.5.5-.5h3c.28,0,.5.22.5.5v2c0,.28-.22.5-.5.5h-3c-.28,0-.5-.22-.5-.5v-2ZM10.5,7h3c.28,0,.5.22.5.5s-.22.5-.5.5h-3c-.28,0-.5-.22-.5-.5s.22-.5.5-.5ZM10,9.5c0-.28.22-.5.5-.5h3c.28,0,.5.22.5.5v2c0,.28-.22.5-.5.5h-3c-.28,0-.5-.22-.5-.5v-2ZM10,13.5c0-.28.22-.5.5-.5h3c.28,0,.5.22.5.5v.46l-2,1.71-2-1.71v-.46ZM8.5,6h-2.5l3-2.7v2.2c0,.28-.22.5-.5.5ZM8.5,12h-2.5l3-2.7v2.2c0,.28-.22.5-.5.5ZM9.67,14.94l1.62,1.34-3.62,3.09,2-4.43ZM7,21l5-4.13,5,4.13H7Z"/>
        <path class="cls-1" d="M2,20.24l1.15.25.07-.35c.55-2.53.96-4.75.96-8.4,0-3.6-.46-6.03-.96-8.4l-.07-.35-1.15.24.07.35c.49,2.3.93,4.66.93,8.15,0,3.53-.4,5.69-.93,8.15l-.07.35Z"/>
        <path class="cls-1" d="M20.85,20.49l1.15-.25-.07-.35c-.53-2.46-.94-4.62-.93-8.15,0-3.5.44-5.85.93-8.15l.07-.35-1.15-.24-.07.35c-.5,2.37-.96,4.79-.96,8.4,0,3.65.41,5.87.96,8.4l.07.35Z"/>
    </g>
</svg>
