<?xml version="1.0" encoding="UTF-8"?>
<svg id="Icon" xmlns="http://www.w3.org/2000/svg" viewBox="0 0 24 24">
  <path  stroke="currentColor" d="M7.53,4.82c.27,0,.52.1.71.29l3.05,3.05.71.71.71-.71,3.05-3.05c.19-.19.44-.29.71-.29.27,0,.52.1.71.29l3.53,3.53c.19.19.29.44.29.71,0,.27-.1.52-.29.71l-3.06,3.06-5.65,5.65-5.65-5.65-3.06-3.06c-.19-.19-.29-.44-.29-.71,0-.27.1-.52.29-.71l3.53-3.53c.19-.19.44-.29.71-.29M16.47,3.82c-.51,0-1.02.2-1.42.59l-3.05,3.05-3.05-3.05c-.39-.39-.9-.59-1.42-.59s-1.02.2-1.41.59l-3.53,3.53c-.78.78-.78,2.05,0,2.83l3.06,3.06,6.35,6.35,6.35-6.35,3.06-3.06c.78-.78.78-2.05,0-2.83l-3.53-3.53c-.39-.39-.9-.59-1.41-.59h0Z"/>
</svg>