<?xml version="1.0" encoding="UTF-8"?>
<svg width="160" height="160" version="1.1" viewBox="0 0 160 160" xml:space="preserve" xmlns="http://www.w3.org/2000/svg" id="root">
 <g fill="currentColor" stroke="currentColor">
  <path d="m79.861 5.5859c-24.573 5.103e-4 -44.493 19.921-44.492 44.494 0.03914 7.5694 2.0088 15.004 5.7227 21.6l0.0293 0.04687c2.5341 4.8357 4.9136 9.6243 6.6367 13.75 1.7231 4.1257 2.6341 7.5416 3.2891 11.051 0.65496 3.5092 1.0535 7.1133 2.7852 8.9375 1.7317 1.8243 4.7963 1.871 9.4121 1.8945 4.5328 0.0231 10.56 0.0232 16.615 0.0234 6.0555-3e-4 12.084-3.5e-4 16.617-0.0234 4.6158-0.0235 7.6804-0.0703 9.4121-1.8945s2.1282-5.4283 2.7832-8.9375c0.65494-3.5092 1.5679-6.9251 3.291-11.051 1.7231-4.1257 4.0963-8.8972 6.6305-13.733l0.0375-0.064c3.7145-6.5957 5.6849-14.03 5.7246-21.6 5.57e-4 -24.574-19.92-44.495-44.494-44.494zm16.512 33.35c0.78139-0.01706 0.97347 0.3011 1.0801 1.2188 0.17057 1.4682 0.12217 4.4674 0.15039 8.6328 0.02822 4.1654 0.13323 9.4972-0.3125 13.393-0.44573 3.8954-1.4415 6.3537-2.6406 9.0059-1.1991 2.6522-2.6001 5.4982-5.2188 7.1484-2.6186 1.6502-6.4569 2.1047-8.3164 2.8203-1.8595 0.71558-1.7394 1.6901-1.6016 4.4121s0.29465 7.1917 0.02344 9.4961c-0.27121 2.3044-0.97242 2.4443-2.1699 2.5293-1.1975 0.08497-2.8928 0.11507-4.5879 0.14453l0.28711-6.4961c1.3531-6.0173 2.7056-12.035 4.5488-16.971 1.8432-4.936 4.1757-8.7894 5.3633-11.289 1.1876-2.4997 1.2302-3.6456 0.56055-3.9707-0.66965-0.32506-2.0517 0.17069-3.9453 1.6621-1.8936 1.4914-4.2893 3.9687-5.9238 7.7402-1.6345 3.7715-2.4902 8.8174-3.7539 8.4023-1.2637-0.41506-2.9713-6.323-3.377-11.363-0.40566-5.0403 0.47846-9.2553 3.2129-13.066 2.7344-3.8111 7.3193-7.2174 12.086-9.4121 4.7666-2.1947 9.715-3.1783 12.385-3.7012 1.0012-0.19609 1.6816-0.3257 2.1504-0.33594z" stroke-width="1.0138"/>
  <path x="55.779804" y="112.30907" width="48.500465" height="11.013996" d="m61.78 112.31h36.5a6 6 45 0 1 6 6 5.529 5.529 140.12 0 1-6 5.014h-36.5a6 6 45 0 1-6-6 5.529 5.529 140.12 0 1 6-5.014z"/>
  <path x="59.954498" y="142.28525" width="39.966003" height="11.104232" d="m65.954 142.29h27.966a6 6 45 0 1 6 6 5.5702 5.5702 139.61 0 1-6 5.1042h-27.966a6 6 45 0 1-6-6 5.5702 5.5702 139.61 0 1 6-5.1042z"/>
  <path x="54.779842" y="127.25028" width="50.000313" height="10.999432" d="m60.78 127.25h38a6 6 45 0 1 6 6 5.5224 5.5224 140.2 0 1-6 4.9994h-38a6 6 45 0 1-6-6 5.5224 5.5224 140.2 0 1 6-4.9994z"/>
 </g>
</svg>
