<?xml version="1.0" encoding="UTF-8"?>
<svg width="21.845mm" height="36.931mm" version="1.1" viewBox="0 0 21.845 36.931" xml:space="preserve"
  xmlns="http://www.w3.org/2000/svg" id="root">
  <g transform="translate(-52.49 -113.73)">
    <g transform="translate(-107.5 -69.363)">
      <g fill="none" stroke="currentColor" stroke-linecap="round">
        <path d="m166.25 210.84h9.2604" stroke-width="2.465" />
        <path d="m165.99 214.81h9.7896" stroke-width="2.5" />
        <path d="m167.31 218.78h7.4083" stroke-width="2.5" />
      </g>
      <path transform="matrix(.26458 0 0 .26458 151.17 181.74)"
        d="m75.57 5.1445c-1.9468-0.017264-3.9862 0.14659-6.2363 0.52148-4.0002 0.66656-8.6658 2.0006-12.666 3.834-4.0003 1.8334-7.3345 4.1672-10.168 6.834-2.8335 2.6668-5.166 5.6665-7.166 9-2.0001 3.3335-3.668 6.9997-4.668 10.5-0.99995 3.5003-1.3321 6.8332-1.332 10.5 1.14e-4 3.6668 0.33369 7.6666 0.83398 10.5 0.50018 2.8334 1.1659 4.5007 2.666 7.334 1.5001 2.8333 3.8327 6.834 5.666 10.334 1.8333 3.5 3.1681 6.5 4.168 9.5 0.99987 3 1.6648 5.9994 1.998 8.166 0.33335 2.1666 0.33317 3.4999 0.5 4.5 0.16706 1.0001 0.36918 1.7532 0.80996 2.8714 0.55764 1.4147 0.024029 1.4607 11.024 1.4607 7 0 19 0 26.616-6.9e-4 11.333-1e-3 11.057-0.0923 11.429-1.9566 0.1858-0.83112 0.62129-3.7079 1.4546-6.8747 0.83331-3.1669 2.1673-7.1665 4.334-12 2.1667-4.8335 5.166-10.501 7.166-14.834 2-4.3333 2.9999-7.3329 3.5-11.166 0.50011-3.8332 0.49907-8.5007 0.16602-12.334-0.33336-3.8333-0.99818-6.832-1.998-9.832-0.99988-3-2.3336-5.9999-4.5-9-2.1664-3.0001-5.1666-6.0017-8.5-8.502-3.3333-2.5003-7-4.4998-10.5-6-3.5-1.5002-6.8325-2.4998-10.166-3-1.4584-0.21883-2.9175-0.34204-4.4316-0.35547zm15.43 30.855c0.3335 2.3345 0.66739 4.6687 0.83398 7.002 0.16659 2.3333 0.16673 4.6648 0 6.998-0.16673 2.3333-0.50064 4.6673-0.83398 6.834-0.33335 2.1667-0.66598 4.1668-1.166 6-0.50004 1.8332-1.1667 3.5002-2 5-0.8333 1.4998-1.8341 2.8322-2.834 3.832s-2.0004 1.6666-3 2c-0.99964 0.33342-1.9998 0.33343-3 0.5-1.0002 0.16656-1.999 0.4997-2.666 1-0.66706 0.5003-1.0014 1.1676-1.168 2.668s-0.16602 3.8333-0.16602 6c0 2.1667 6.52e-4 4.1678-0.16602 5.334-0.16667 1.1662-0.50114 1.4993-0.83398 1.666-0.33284 0.16668-0.66464 0.16602-1.498 0.16602s-2.1667 1.51e-4 -3-0.16602-1.1673-0.50043-1.168-1.334c-6.68e-4 -0.83355 0.33268-2.1667 0.66602-3.5s0.66664-2.6654 1-4.332 0.6667-3.6679 1-5.168 0.66666-2.4994 1-3.666 0.66603-2.4999 1.166-4c0.49999-1.5001 1.1679-3.1665 2.168-5 1-1.8335 2.3332-3.8331 3-5.166 0.66675-1.333 0.66616-2 0.5-2.5-0.16616-0.5-0.49963-0.8333-1-0.83398-0.50037-6.81e-4 -1.1679 0.3333-2.168 1-1.0001 0.6667-2.3332 1.6652-3.5 2.832-1.1668 1.1668-2.1666 2.5018-3 4.002-0.83339 1.5002-1.5 3.1652-2 4.832-0.49998 1.6668-0.83249 3.3344-1.332 3.668s-1.1672-0.66669-1.834-2-1.3324-3.0005-1.666-4.834c-0.33357-1.8335-0.33324-3.8331 0-6 0.33324-2.1669 0.99929-4.499 2.166-6.666 1.1667-2.167 2.8326-4.1685 4.666-6.002 1.8334-1.8334 3.8338-3.4999 6.334-5s5.5011-2.8327 8.168-3.666 4.9995-1.1668 7.332-1.5z"
        fill="currentColor" />
    </g>
  </g>
</svg>
