<?xml version="1.0" encoding="UTF-8"?>
<svg width="39.693mm" height="34.789mm" version="1.1" viewBox="0 0 39.693 34.789" xml:space="preserve"
  xmlns="http://www.w3.org/2000/svg" id="root">
  <g transform="translate(-34.793 -114.97)">
    <g transform="translate(-100.25 -47.689)">
      <path transform="matrix(.26458 0 0 .26458 135.06 160.26)"
        d="m29.688 29.557a23.618 22.489 0 0 0-13.371 3.9551l-12.414 12.742 32.457 32.418 12.012-12.887a23.618 22.489 0 0 0 4.9355-13.74 23.618 22.489 0 0 0-23.619-22.488z"
        stroke-linecap="round" stroke-width="10.193" fill="currentColor" />
      <g stroke="currentColor">
        <path d="m136.05 177.36 3.7731-3.9299" stroke-linecap="round" stroke-width="2" />
        <path d="m139.76 181.19 3.7731-3.9299" fill="none" stroke-linecap="round" stroke-width="2" />
        <path
          d="m146.95 170.24c1.8412-1.8186 3.6825-3.6371 5.7871-4.823 2.1046-1.1859 4.4723-1.7391 6.8393-1.6464 2.367 0.0927 4.733 0.83106 6.7675 2.0745 2.0344 1.2435 3.7372 2.9917 4.9556 4.9111 1.2184 1.9194 1.9524 4.0097 2.2221 6.0293 0.26969 2.0196 0.0751 3.9683-0.55575 5.8223-0.6309 1.854-1.6981 3.6133-2.4741 4.6822-0.77604 1.0689-1.261 1.4474-1.746 1.8259"
          fill="none" stroke-width="2.2" />
      </g>
      <path transform="matrix(.26458 0 0 .26458 135.06 160.26)" fill="currentColor"
        d="m103.1 60.781c-1.1546-0.0013-2.6507 0.0029-4.6133 0.0078-7.8503 0.01959-23.176 0.05382-31.42 0.23633-8.2442 0.18251-9.4067 0.51373-10.443 1.1523-1.0366 0.63861-1.9471 1.5855-2.6621 2.793s-1.2338 2.6744-2.4492 5.8535c-1.2154 3.1791-3.1284 8.0702-4.4297 11.227-1.3013 3.1564-1.9908 4.579-3.1035 5.6914-1.1127 1.1124-2.6489 1.9145-3.9258 3.0488-1.2769 1.1343-2.2932 2.5991-2.8242 5.5645-0.53102 2.9654-0.5753 7.4319-0.59766 9.6641-0.02236 2.2321 0.16406 19.162 0.16406 19.162h93.447v-22.625c0.147-0.85562 0.11313-1.6969 0.0684-2.4844-0.20004-3.5155-0.58415-5.9682-1.5859-7.6816s-2.6237-2.6872-3.8359-3.3164c-1.2123-0.62921-2.0146-0.91224-2.5215-1.1738-0.50689-0.26159-0.7175-0.50134-2.0547-3.8477-1.3372-3.3463-3.8022-9.7987-5.3848-13.914s-2.2833-5.8931-3.4434-7.0664c-1.16-1.1733-2.7783-1.743-3.7754-2.0254-0.74783-0.21177-1.1456-0.26172-4.6094-0.26562zm-40.684 7.416 42.576 0.45703 2.1836 1.7344 6.875 17.469-60.836 0.01953 6.5488-18.053zm-11.416 27.625a6.6508 6.651 0 0 1 6.6504 6.6504 6.6508 6.651 0 0 1-6.6504 6.6523 6.6508 6.651 0 0 1-6.6504-6.6523 6.6508 6.651 0 0 1 6.6504-6.6504zm64.73 0.14258a6.6508 6.651 0 0 1 6.6504 6.6504 6.6508 6.651 0 0 1-6.6504 6.6524 6.6508 6.651 0 0 1-6.6523-6.6524 6.6508 6.651 0 0 1 6.6523-6.6504z" />
      <path d="m148.54 195.58 0.0166-3.848" fill="none" stroke="currentColor" stroke-linecap="round"
        stroke-width="3.6696" />
      <path d="m165.71 195.61 0.0166-3.848" fill="none" stroke="currentColor" stroke-linecap="round"
        stroke-width="3.6696" />
    </g>
  </g>
</svg>
