<?xml version="1.0" encoding="UTF-8"?>
<svg width="39.693mm" height="34.789mm" version="1.1" viewBox="-30 0 141.492 127.81" xml:space="preserve" xmlns="http://www.w3.org/2000/svg" id="root">
  <g transform="translate(-16.934 -56.113)">
    <g transform="translate(-59.22 38.929)" fill="none" stroke="currentColor">
      <g>
        <g stroke-width="3.5">
          <path d="m77.742 32.692 17.992-13.758h42.333l17.992 13.758" />
          <path d="m78.8 31.634h76.2" />
          <path d="m114.78 18.934-33.867 123.83" />
          <path d="m118.49 18.934 33.867 123.83" />
        </g>
        <path d="m76.154 142.49h10.054" stroke-width="5" />
        <path d="m147.59 142.49h10.054" stroke-width="5" />
      </g>
      <path d="m80.917 32.692v10.583" stroke-linecap="round" stroke-width="3.5" />
      <path d="m152.88 32.692v10.583" stroke-linecap="round" stroke-width="3.5" />
      <g>
        <g stroke-width="3">
          <path d="m76.154 35.867h10.583" />
          <path d="m76.154 40.101h10.583" />
          <path d="m147.06 35.867h10.583" />
          <path d="m147.06 40.101h10.583" />
        </g>
        <path d="m97.585 53.33h38.365" stroke-width="3.5" />
        <path d="m88.325 91.959h57.15" stroke-width="4.2718" />
        <g stroke-width="3.5">
          <path d="m112.67 32.692 12.7 20.108" />
          <path d="m121.13 32.692-12.7 20.108" />
          <path d="m105.26 53.859 32.808 38.1" />
          <path d="m128.54 53.859-32.808 38.1" />
          <path d="m96.792 93.017 50.8 32.808" />
          <path d="m136.48 93.017-50.8 32.808" />
        </g>
      </g>
    </g>
    <path d="M-10 56.113a73.905 93.905 0 0 1 0 127.81" fill="none" stroke="orange" stroke-width="5" />
    <path d="M125.492 56.113a73.905 93.905 0 0 0 0 127.81" fill="none" stroke="orange" stroke-width="5" />
  </g>
</svg>
