<?xml version="1.0" encoding="UTF-8" standalone="no"?>
<svg
   height="24"
   viewBox="0 -960 960 960"
   width="24"
   version="1.1"
   id="svg2824"
   xmlns="http://www.w3.org/2000/svg"
   xmlns:svg="http://www.w3.org/2000/svg">
  <defs
     id="defs2828" />
  <path
     style="fill:var(--ion-color-warning)"
     d="m 479.97,-743.08 q -8.51,0 -14.24,-5.75 -5.73,-5.75 -5.73,-14.25 v -95.38 q 0,-8.5 5.76,-14.25 5.76,-5.75 14.27,-5.75 8.51,0 14.24,5.75 5.73,5.75 5.73,14.25 v 95.38 q 0,8.5 -5.76,14.25 -5.76,5.75 -14.27,5.75 z"
     id="path2858" />
  <path
     style="fill:var(--ion-color-warning)"
     d="m 665.69,-665.69 q -6.38,-6.39 -6.38,-14.43 0,-8.03 6.38,-14.65 l 66.77,-67 q 6.62,-6.61 14.66,-6.61 8.03,0 14.82,6.78 6.21,6.22 6.21,13.98 0,7.77 -6.38,14.16 L 694,-665.69 q -6.38,6.38 -14.15,6.38 -7.77,0 -14.16,-6.38 z"
     id="path2856" />
  <path
     style="fill:var(--ion-color-warning)"
     d="m 266.77,-664.92 -68.54,-68.54 q -6.38,-6.39 -6.38,-14.67 0,-8.28 6.21,-13.64 6.79,-5.85 14.82,-5.85 8.04,0 13.89,5.85 l 67.54,67.77 q 6.38,6.62 6.77,14.65 0.38,8.04 -6,14.43 -6.39,6.38 -14.16,6.38 -7.77,0 -14.15,-6.38 z"
     id="path2854" />
  <path
     style="fill:var(--ion-color-warning)"
     d="m 763.08,-460 q -8.5,0 -14.25,-5.76 -5.75,-5.76 -5.75,-14.27 0,-8.51 5.75,-14.24 5.75,-5.73 14.25,-5.73 h 95.38 q 8.5,0 14.25,5.76 5.75,5.76 5.75,14.27 0,8.51 -5.75,14.24 -5.75,5.73 -14.25,5.73 z"
     id="path2852" />
  <path
     style="fill:var(--ion-color-warning)"
     d="m 581.31,-307.38 q -9.39,-51.47 -48.19,-85.93 -38.81,-34.46 -91.04,-37 -21.77,-45.54 -61.96,-74.73 -40.2,-29.19 -90.89,-36.5 19.85,-62.23 72.63,-100.34 Q 414.65,-680 480,-680 q 83.33,0 141.67,58.33 58.33,58.34 58.33,141.67 0,53.64 -26.62,99.43 -26.61,45.8 -72.07,73.19 z"
     id="path2850" />
  <path
     d="m 263.08,-198.46 q -56.48,0 -96.71,-40.22 -40.22,-40.22 -40.22,-96.7 0,-53.31 37.97,-91.27 37.96,-37.97 91.26,-37.97 37.99,0 70.03,20.62 32.05,20.62 47.74,55.62 l 15.39,36.84 h 40.92 q 31.89,0 53.52,22.09 21.64,22.09 21.64,54.08 0,31.99 -22.31,54.45 -22.31,22.46 -54.62,22.46 z"
     id="path2848" />
  <path
     style="fill:var(--ion-color-warning)"
     d="m 732.46,-198.23 -66.77,-67 q -6.38,-6.62 -6.38,-14.65 0,-8.04 6.38,-14.43 6.39,-6.38 14.43,-6.38 8.03,0 14.65,6.38 l 67,66.77 q 6.61,6.62 6.61,14.66 0,8.03 -6.61,14.65 -6.62,6.61 -14.65,6.61 -8.04,0 -14.66,-6.61 z"
     id="path2822" />
</svg>
