<?xml version="1.0" encoding="UTF-8"?>
<svg width="164.44mm" height="155.24mm" version="1.1" viewBox="0 0 164.44 155.24" xml:space="preserve"
    xmlns="http://www.w3.org/2000/svg" id="root">
    <g transform="translate(120.97 -53.899)">
        <g transform="translate(-77.334 -18.948)">
            <g transform="translate(164.01 11.874)">
                <path x="-200.89037" y="46.758968" width="130.34483" height="130.34483"
                    d="m-190.59 100h109.54l16.6 77.104h-140.44z" fill="none" stroke="currentColor" stroke-linecap="round"
                    stroke-linejoin="round" stroke-width="5.5" style="font-variation-settings:'wght' 500" />
                <g transform="matrix(1 0 0 .96935 0 5.2424)" fill="currentColor">
                    <path x="-192.71796" y="54.931381" width="34" height="34"
                        d="m-184.34 103.82h28.973l-0.95562 17.126h-30.763z"
                        style="font-variation-settings:'wght' 500" />
                    <path x="-192.71796" y="94.931381" width="34" height="34"
                        d="m-187.6 124.19h31.102l-1.1063 19.826h-33.175z" style="font-variation-settings:'wght' 500" />
                    <path x="-192.71796" y="134.93138" width="34" height="34"
                        d="m-191.39 147.8h33.569l-1.2956 23.218h-35.997z" style="font-variation-settings:'wght' 500" />
                    <path x="-152.71794" y="54.931377" width="34" height="34"
                        d="m-150.25 103.82h28.973l1.1506 17.126h-30.763z" style="font-variation-settings:'wght' 500" />
                    <path x="-152.71794" y="94.931381" width="34" height="34"
                        d="m-151.01 124.19h31.102l1.3319 19.826h-33.175z" style="font-variation-settings:'wght' 500" />
                    <path x="-152.71794" y="134.93138" width="34" height="34"
                        d="m-151.89 147.8h33.569l1.5599 23.218h-35.997z" style="font-variation-settings:'wght' 500" />
                    <path x="-112.71795" y="54.931385" width="34" height="34"
                        d="m-116.16 103.82h28.973l3.2567 17.126h-30.763z" stroke-width="1.0005"
                        style="font-variation-settings:'wght' 500" />
                    <path x="-112.71795" y="94.931381" width="34" height="34"
                        d="m-114.42 124.19h31.102l3.7702 19.826h-33.175z" style="font-variation-settings:'wght' 500" />
                    <path x="-112.71795" y="134.93138" width="34" height="34"
                        d="m-112.4 147.8h33.569l4.4154 23.218h-35.997z" style="font-variation-settings:'wght' 500" />
                </g>
            </g>
            <g fill="currentColor">
                <path transform="matrix(.26458 0 0 .26458 -44.118 71.761)"
                    d="m253.79 470.37v88.768h-53.641v31.688h154.21v-31.688h-55.617v-88.768z"
                    style="font-variation-settings:'wght' 500"/>
                <path transform="matrix(.26458 0 0 .26458 -44.118 71.761)"
                    d="m466.79 74.369a83.15 83.15 0 0 0-35.166 7.6758 83.15 83.15 0 0 0-43.016 46.465c2.6762 6e-3 4.9685 9e-3 11.105 0.0332 16.857 0.0653 50.571 0.19606 67.992 0.27539 17.422 0.0793 18.552 0.10713 20.486 0.64453 1.9344 0.5374 4.6718 1.5845 6.9473 3.6133s4.0895 5.0383 5.1172 7.2207 1.2698 3.5377 4.7773 18.551c3.4563 14.794 10.065 42.778 14.553 62.68a83.15 83.15 0 0 0 22.404-98.902 83.15 83.15 0 0 0-75.201-48.256z"
                    style="font-variation-settings:'wght' 500"/>
                <path
                    d="m47.97 85.793 5.1971 9.693a0.96888 0.96888 8.0193 0 0 1.548 0.2181l3.759-3.8604a0.98326 0.98326 80.859 0 0-0.25073-1.5583l-9.7049-5.0479a0.4085 0.4085 134.64 0 0-0.54852 0.55544z" />
                <path
                    d="m79.429 73.127 3.2278 11.258a0.97183 0.97183 127.7 0 1-0.95791 1.2394l-5.3406-0.13037a1.0134 1.0134 53.946 0 1-0.94694-1.3008l3.2775-11.069a0.3855 0.3855 0.24753 0 1 0.7402 0.0032z" />
                <path
                    d="m97.637 90.179 10.592-5.8754a0.3606 0.3606 45.736 0 1 0.48566 0.4983l-6.2999 10.7a0.97197 0.97197 174.18 0 1-1.5585 0.15875l-3.4891-3.8586a1.0503 1.0503 99.431 0 1 0.26958-1.6229z" />
                <path
                    d="m108.49 111.27-8e-3 5.3409a0.97694 0.97694 36.53 0 0 1.263 0.93559l10.78-3.3009a0.39707 0.39707 89.682 0 0-4e-3 -0.76061l-10.76-3.1646a0.99139 0.99139 143.24 0 0-1.2711 0.94964z" />
                <path
                    d="m95.696 134.6 3.3207-2.9928a1.0377 1.0377 9.8615 0 1 1.6089 0.27967l5.282 9.8303a0.35093 0.35093 136.89 0 1-0.49529 0.46358l-9.5776-5.9933a0.99804 0.99804 85.005 0 1-0.13874-1.5874z" />
            </g>
        </g>
    </g>
</svg>