<svg xmlns="http://www.w3.org/2000/svg" height="24px" viewBox="0 -960 960 960" width="24px"><path d="M348.38-86.15q-4.43 0-6.87-3.77-2.43-3.77-.97-8.16L366-172.31h-51.92q-4.19 0-6.87-3.29-2.67-3.29-.67-7.4l32.61-91.62q2.43-7.26 8.48-11.71 6.06-4.44 14.14-4.44h27.46q8.79 0 13.59 7.08 4.8 7.07 1.33 15.54l-26.38 62h53.58q5.19 0 7.42 4.34 2.23 4.35-1.28 8.78L357.54-89.31q-1.53 1.8-3.58 2.48-2.04.68-5.58.68ZM577.08-120q-4.7 0-7.12-3.77t-.96-8.15l19.77-57.31h-54.56q-4.26 0-6.97-3.29-2.7-3.29-.7-7.4l26.09-74.45q2.52-7.71 8.64-12.05 6.11-4.35 14.27-4.35h27.23q8.53 0 13.57 7.08 5.04 7.07 1.58 15.54l-19.15 45.07h51.88q5.1 0 7.22 4.35 2.13 4.35-1.39 8.82L586-123.15q-.47.45-8.92 3.15ZM300-340q-83.31 0-141.65-58.35Q100-456.69 100-540q0-77.62 52.31-134.23 52.31-56.62 131-65.31 29.76-56.28 81.38-88.37Q416.31-860 479.7-860q86.45 0 148.34 57.12 61.88 57.11 72.04 142.34 73.61 4.46 116.77 51.23Q860-562.54 860-499.77q0 66.31-46.67 113.04Q766.67-340 700-340H300Z"/></svg>