<?xml version="1.0" standalone="no"?>
<!DOCTYPE svg PUBLIC "-//W3C//DTD SVG 20010904//EN"
 "http://www.w3.org/TR/2001/REC-SVG-20010904/DTD/svg10.dtd">
<svg version="1.0" xmlns="http://www.w3.org/2000/svg"
 width="1807.000000pt" height="1807.000000pt" viewBox="0 0 1807.000000 1807.000000"
 preserveAspectRatio="xMidYMid meet">
<metadata>
Created by potrace 1.11, written by Peter Selinger 2001-2013
</metadata>
<g transform="translate(0.000000,1807.000000) scale(0.100000,-0.100000)"
fill="#000000" stroke="none">
<path d="M670 15629 c-70 -16 -156 -45 -197 -65 -219 -108 -377 -373 -445
-743 -29 -158 -31 -550 -4 -746 145 -1056 719 -2196 1606 -3191 140 -156 413
-420 570 -552 742 -616 1627 -1054 2625 -1298 127 -31 235 -58 242 -60 20 -5
6 -262 -15 -291 -10 -12 -55 -66 -101 -120 -294 -347 -503 -767 -600 -1208
-68 -311 -87 -685 -51 -975 113 -896 710 -1742 1690 -2395 435 -290 898 -517
1405 -691 71 -25 125 -41 120 -36 -6 4 -43 34 -83 66 -172 138 -271 329 -272
524 -1 399 182 887 503 1339 166 235 388 492 501 582 l66 53 -5 81 c-19 281
-78 488 -210 746 -185 362 -536 752 -973 1081 l-73 55 1035 3 c570 1 1503 1
2073 0 l1036 -3 -78 -59 c-234 -176 -492 -417 -658 -616 -321 -382 -517 -840
-517 -1204 l0 -91 73 -60 c135 -113 418 -455 569 -690 272 -422 418 -847 418
-1215 0 -201 -100 -393 -276 -530 -38 -29 -73 -57 -79 -62 -16 -14 244 77 420
147 572 227 1097 535 1555 913 158 131 465 441 585 592 363 455 571 912 652
1437 24 153 23 570 -1 743 -72 522 -247 952 -550 1354 -46 61 -116 145 -155
188 l-71 76 -2 133 -3 132 160 38 c1261 292 2411 934 3198 1784 836 902 1430
1983 1637 2980 137 662 82 1229 -153 1574 -49 74 -150 165 -224 204 -37 19
-120 50 -183 69 -108 31 -124 33 -270 33 -172 0 -212 -7 -500 -92 -731 -214
-1509 -652 -2285 -1288 -483 -396 -1052 -957 -1545 -1525 -670 -773 -1379
-1751 -1991 -2748 l-36 -59 -114 18 c-870 140 -2397 143 -3288 8 -73 -11 -134
-19 -135 -17 -683 1100 -1294 1951 -1956 2723 -1384 1613 -2739 2591 -4070
2937 -140 37 -169 41 -300 44 -134 3 -155 1 -270 -27z m6584 -9004 c179 -38
355 -166 474 -345 76 -113 76 -161 2 -273 -145 -220 -340 -345 -568 -363 -111
-8 -215 14 -332 73 -82 40 -109 61 -195 148 -119 120 -167 195 -172 268 -4 46
0 60 34 116 50 85 179 220 262 275 153 102 325 137 495 101z m3809 -1 c189
-42 362 -171 486 -363 36 -56 41 -71 41 -122 0 -52 -4 -64 -51 -134 -106 -157
-254 -276 -414 -331 -68 -23 -97 -27 -190 -28 -128 0 -190 15 -309 77 -97 50
-221 165 -297 274 -52 75 -54 81 -54 143 0 61 3 69 48 138 182 272 468 406
740 346z"/>
<path d="M8929 4569 c-81 -11 -193 -48 -256 -85 -78 -45 -160 -130 -196 -203
-29 -59 -32 -75 -32 -151 1 -73 5 -94 30 -145 56 -117 179 -213 340 -267 60
-20 90 -23 215 -23 133 0 152 2 233 29 151 49 269 142 324 254 25 50 28 68 28
152 0 83 -4 103 -27 153 -91 195 -387 323 -659 286z"/>
</g>
</svg>
