<svg version="1" xmlns="http://www.w3.org/2000/svg" width="1030.667" height="1030.667" viewBox="0 0 773.000000 773.000000"><path d="M354.8 44.5c-.2.1-3.2.5-6.8.9-40.8 3.9-79.2 28.8-101.1 65.6-9.6 16.1-14.8 30.1-18.4 49.5-1.9 10.3-2.4 27.6-1.2 40 2.2 22.4 9.9 44.1 22.5 63.1 8.5 12.8 19.7 25.3 28.7 31.9 2.2 1.7 4.2 3.2 4.5 3.6 1.2 1.4 10.2 7 17.3 10.8 14.4 7.9 31 13 47.7 14.8 87.4 9.4 160.3-67.2 149.4-157.2-.7-5.5-1.4-10.9-1.7-12-.3-1.1-1-4.1-1.6-6.6-2.6-11.5-10.2-29-17.9-41.4-4.4-7.2-17.1-22.1-23.4-27.8-7.9-7-15.4-12.7-16.7-12.7-.5 0-1.1-.4-1.3-.9-.4-1.2-15.9-9.4-22.8-12.1-10.1-4.1-21.6-7.1-32.3-8.5-4.5-.6-24.4-1.4-24.9-1z"/><path d="M39.1 236.7C28.7 260.9 20 285.4 15.5 303c-.9 3.6-1.9 7.2-2.1 8-1.6 5.6-6.4 30.6-6.9 35.5-.3 3.3-.8 6.7-1 7.5-2.4 9.8-2.5 63.4-.1 75.5.2 1.1.7 4.5 1.1 7.5.4 3 .9 6.4 1.1 7.5C15.2 485.3 29.3 521 52 556.7c6.6 10.3 18.1 26.6 20 28.3.3.3 2.1 2.5 4 5s4.1 5.2 4.9 6.1c.9.9 4.6 4.9 8.2 9 33 36.7 80.1 73.3 116.9 90.7 20.7 9.8 52 19.3 75 22.7 14.2 2.1 17.9 2.6 24.8 3.2 15.9 1.5 72.4.7 82.1-1.2.9-.1 4.3-.6 7.6-.9 5.3-.6 8.5-1.1 14.7-2.2.9-.1 3.8-.6 6.5-1 2.6-.3 5.7-.8 6.8-1.1 1.1-.2 3.1-.6 4.5-.9 1.4-.3 4.5-1 7-1.5 2.5-.6 5.6-1.3 7-1.5 10.6-1.9 43.2-11.5 61.5-18.1 31.4-11.2 67.3-28.3 90.3-42.9 2.9-1.9 5.5-3.4 5.8-3.4.2 0 1-.4 1.7-1 .7-.5 5.7-4 11.2-7.6 9.8-6.6 16.5-11.3 17.5-12.5.3-.3 3-2.4 6-4.6 21.3-15.7 49.5-44.4 65.3-66.4 13.4-18.6 29-47.6 39.1-72.7 7.6-18.6 16.2-45.8 18.2-57.2.3-1.4.7-3.3 1-4.2.3-1 .7-3 1-4.5.2-1.6.9-5.1 1.4-7.8 2.4-12.8 3.3-22.7 3.3-36.5 0-18.7-2.9-33.1-9.1-45.8-3.4-7-12.1-16.4-18.5-20.1-4.9-2.8-17.8-6.9-22.2-7-18.2-.4-26.5.6-42.9 5.5-14.2 4.2-22.9 7.8-44.9 18.3-26.7 12.7-28.7 13.6-57.7 26.8-19.5 8.9-82 34.6-87 35.8-.8.2-7.8 2.7-15.5 5.5s-20.3 7.2-28 9.6c-7.7 2.5-15.8 5.1-18 5.9-4.6 1.6-34.6 10.3-37.8 10.9-1.2.3-6.7 1.6-12.2 3-5.5 1.5-11.3 2.9-13 3.2-1.6.2-5.8 1.1-9.3 1.9-3.4.8-7.7 1.7-9.5 2-1.7.3-3.9.8-4.7 1-.8.2-3.1.7-5 1-1.9.3-4.6.7-6 1-1.4.3-4 .7-5.7 1-1.8.3-4.5.7-6 .9-1.6.3-4.7.7-7 1-2.4.3-6 .8-8 1.1-34.8 4.7-84.8 3.7-111.8-2.2-1.6-.4-3.4-.8-4-.9-.5-.1-3-.7-5.5-1.4s-5.2-1.4-6.2-1.5c-5.8-1.2-22.2-7.6-33.3-13.1-39.5-19.7-67.3-52.1-81.9-95.8-2-5.9-3.8-11.7-4.1-12.9-.2-1.2-.9-4-1.5-6.2-.5-2.2-1.4-6.7-2-10-.5-3.3-1.2-7.1-1.5-8.5-.2-1.3-.8-5.4-1.1-9-.4-3.6-.8-7.9-1-9.5-.6-5.7-.6-32.4.1-33.4.3-.6.2-1.1-.2-1.1-.5 0-2.4 3.5-4.2 7.7z"/></svg>