<?xml version="1.0" encoding="UTF-8"?>
<svg id="Icon" xmlns="http://www.w3.org/2000/svg" viewBox="0 0 24 24">
  <defs>
    <style>
      .cls-1 {
        fill: currentColor;
      }
    </style>
  </defs>
  <polygon class="cls-1" points="5.54 18.01 3.01 15.48 3.01 11.89 5.39 9.51 7.99 9.51 8.12 9.38 7.32 8.51 4.98 8.51 2.01 11.48 2.01 15.89 5.13 19.01 16.96 19.01 16.04 18.01 5.54 18.01"/>
  <path class="cls-1" d="M19.7,11.01h-1.44c-.28,0-.5-.22-.5-.5v-2.16s-2.39-2.34-2.39-2.34h-5.3l-1.57,1.57.68.74,1.31-1.31h4.48l1.79,1.76v3.24h2.53l1.72,1.72v2.5l-1.77,1.77h-1.15l.92,1h.65l2.36-2.36v-3.33l-2.31-2.31Z"/>
  <rect class="cls-1" x="11.95" y="1.24" width="1" height="23.5" transform="translate(-5.51 11.85) rotate(-42.57)"/>
</svg>
