<svg xmlns="http://www.w3.org/2000/svg" width="100%" height="100%" xmlns:xlink="http://www.w3.org/1999/xlink" viewBox="-0.14030612244893104 0 1310.2806122448978 780" preserveAspectRatio="xMidYMid meet" ><rect id="svgEditorBackground" x="0" y="0" width="1310" height="780" style="fill: none; stroke: none;"/><defs id="svgEditorDefs"><polygon id="svgEditorShapeDefs" style="fill:rosybrown;stroke:black;vector-effect:non-scaling-stroke;stroke-width:1px;"/></defs><path d="M4.35,0l-3.725,-3.725c-0.6250000000000004,-0.6250000000000004,-1.875,0.625,-1.2500000000000004,1.25l2.5000000000000004,2.5l-2.5000000000000004,2.5c-0.6249999999999999,0.625,0.6250000000000004,1.8750000000000004,1.2500000000000004,1.25l3.725,-3.725ZM0.6250000000000004,0l-3.7250000000000005,-3.725c-0.625,-0.6250000000000004,-1.8749999999999996,0.625,-1.2499999999999996,1.25l2.5,2.5l-2.5,2.5c-0.625,0.625,0.625,1.8750000000000004,1.25,1.25l3.725,-3.725Z" style="fill:silver; stroke:black; vector-effect:non-scaling-stroke;stroke-width:1px;" id="e3_shape" transform="matrix(7.73498, 0, 0, 7.73498, 671.583, 375.384)"/><path d="M11.59789261207334,-0.08363087404418226l-3.7249999999999996,-3.7249999999999988c-0.6250000000000018,-0.6250000000000027,-1.8749999999999982,0.625,-1.2500000000000018,1.2499999999999982l2.5000000000000018,2.5000000000000018l-2.5000000000000018,2.4999999999999982c-0.625,0.6250000000000022,0.6250000000000018,1.8749999999999991,1.2500000000000018,1.25l3.7249999999999996,-3.7249999999999983ZM7.8728926120733425,-0.08363087404418226l-3.7250000000000005,-3.7249999999999988c-0.6249999999999987,-0.6250000000000027,-1.8749999999999991,0.625,-1.2499999999999987,1.2499999999999982l2.4999999999999996,2.5000000000000018l-2.4999999999999996,2.4999999999999982c-0.6250000000000004,0.6250000000000022,0.625,1.8749999999999991,1.2499999999999987,1.25l3.7250000000000005,-3.7249999999999983Z" style="fill:silver; stroke:black; vector-effect:non-scaling-stroke;stroke-width:1px;" id="e22_shape" transform="matrix(7.73498, 0, 0, 7.73498, 671.583, 375.384)"/><path d="M18.974408443198413,-0.16726174808840968l-3.7250000000000014,-3.724999999999997c-0.625,-0.6250000000000044,-1.8749999999999964,0.6250000000000022,-1.25,1.2499999999999996l2.5,2.5000000000000013l-2.5,2.4999999999999996c-0.625,0.625000000000004,0.625,1.8749999999999996,1.25,1.2500000000000027l3.7250000000000014,-3.725000000000003ZM15.249408443198416,-0.16726174808840968l-3.7249999999999996,-3.724999999999997c-0.6249999999999982,-0.6250000000000044,-1.8749999999999982,0.6250000000000022,-1.2499999999999982,1.2499999999999996l2.5,2.5000000000000013l-2.5,2.4999999999999996c-0.625,0.625000000000004,0.625,1.8749999999999996,1.2499999999999982,1.2500000000000027l3.7249999999999996,-3.725000000000003Z" style="fill:silver; stroke:black; vector-effect:non-scaling-stroke;stroke-width:1px;" id="e23_shape" transform="matrix(7.73498, 0, 0, 7.73498, 671.583, 375.384)"/></svg>