<?xml version="1.0" encoding="UTF-8"?>
<!DOCTYPE svg PUBLIC "-//W3C//DTD SVG 1.1//EN" "http://www.w3.org/Graphics/SVG/1.1/DTD/svg11.dtd">
<!-- Creator: CorelDRAW X7 -->
<svg xmlns="http://www.w3.org/2000/svg" xml:space="preserve" width="42.3332mm" height="42.3332mm" version="1.1" style="shape-rendering:geometricPrecision; text-rendering:geometricPrecision; image-rendering:optimizeQuality; fill-rule:evenodd; clip-rule:evenodd"
viewBox="0 0 4233 4233"
 xmlns:xlink="http://www.w3.org/1999/xlink">
 <defs>
  <style type="text/css">
   <![CDATA[
    .fil0 {fill:#FDC507}
   ]]>
  </style>
 </defs>
 <g id="Ebene_x0020_1">
  <metadata id="CorelCorpID_0Corel-Layer"/>
  <g id="ecological-lightbulb.eps">
   <path class="fil0" d="M2584 2973l-935 0c-97,0 -176,64 -176,143 0,79 79,143 176,143l935 0c97,0 176,-64 176,-143 0,-79 -79,-143 -176,-143z"/>
   <path class="fil0" d="M2760 3524c0,-79 -79,-143 -176,-143l-935 0c-97,0 -176,64 -176,143 0,79 79,143 176,143l935 0c97,0 176,-64 176,-143z"/>
   <path class="fil0" d="M1781 3795c-97,0 -176,64 -176,143 0,79 79,143 176,143l671 0c97,0 176,-64 176,-143 0,-79 -79,-143 -176,-143l-671 0z"/>
   <path class="fil0" d="M2822 2781c16,-27 20,-68 24,-104 1,-9 2,-18 3,-25 40,-291 138,-463 232,-629 108,-190 210,-369 210,-697 0,-647 -527,-1174 -1174,-1174 -648,0 -1174,527 -1174,1174 0,328 101,507 209,697 101,178 206,361 240,689 0,74 61,134 135,134l1179 0c47,0 92,-25 116,-65zm-901 -244c100,-610 249,-843 292,-899 19,-26 17,-42 12,-52 -5,-10 -15,-16 -27,-16 -8,0 -17,2 -28,7 -63,30 -273,155 -296,493 -1,0 -1,1 -1,1 -57,-93 -178,-334 -83,-569 88,-219 337,-383 738,-487 4,-1 7,-1 10,-1 17,0 30,12 32,30 18,174 75,700 -132,945 -64,76 -150,118 -255,125 -46,3 -81,38 -81,82l0 337c0,23 -19,42 -42,42l-106 0c-11,0 -20,-4 -26,-11 -6,-7 -9,-17 -7,-27z"/>
  </g>
 </g>
</svg>
