<svg id="Ebene_1" data-name="Ebene 1" xmlns="http://www.w3.org/2000/svg" xmlns:xlink="http://www.w3.org/1999/xlink" viewBox="0 0 262.5 414.35"><defs><style>.cls-1{fill:none;}.cls-2{fill:#1d1d1d;}.cls-3{clip-path:url(#clip-path);}</style><clipPath id="clip-path" transform="translate(-118.75 -42.83)"><rect class="cls-1" x="118.75" y="42.83" width="262.5" height="414.35"/></clipPath></defs><title>POWERLINE</title><rect class="cls-2" x="-20.28" y="246.63" width="421.33" height="9.19" transform="translate(-221.59 324.07) rotate(-74.37)"/><rect class="cls-2" x="305.04" y="40.56" width="9.19" height="421.33" transform="translate(-174.89 49.67) rotate(-15.6)"/><rect class="cls-2" x="71.94" y="113.01" width="118.64" height="7.95"/><rect class="cls-2" x="40.83" y="238.22" width="180.85" height="7.95"/><g class="cls-3"><path class="cls-2" d="M215.7,166.42L316.93,287.65c3.07,3.69,8.32-1.61,5.27-5.27L221,161.15c-3.08-3.68-8.32,1.61-5.27,5.27" transform="translate(-118.75 -42.83)"/><path class="cls-2" d="M278.18,161.15L176.32,282.38c-3.07,3.65,2.18,9,5.27,5.28L283.45,166.42c3.07-3.65-2.18-8.95-5.27-5.27" transform="translate(-118.75 -42.83)"/><path class="cls-2" d="M230.64,89.31l47,76.35c2.51,4.08,9,.34,6.43-3.76l-47-76.35c-2.51-4.08-9-.34-6.43,3.76" transform="translate(-118.75 -42.83)"/><path class="cls-2" d="M263.18,85.55L215.12,161.9c-2.57,4.07,3.89,7.82,6.43,3.76l48.07-76.35c2.57-4.07-3.88-7.82-6.43-3.76" transform="translate(-118.75 -42.83)"/><path class="cls-2" d="M177.08,288.23l148.69,95.42L347,397.28c4.05,2.6,7.79-3.85,3.76-6.43L202.07,295.43,180.84,281.8c-4-2.6-7.79,3.85-3.76,6.43" transform="translate(-118.75 -42.83)"/><path class="cls-2" d="M317.68,281.8L170.8,377l-21.3,13.81c-4,2.6-.28,9.06,3.76,6.44L300.15,302l21.3-13.81c4-2.6.28-9.05-3.76-6.43" transform="translate(-118.75 -42.83)"/><path class="cls-2" d="M374.22,83.7H125.8l1.88,6.95,49.37-33c3-2,6-4,8.95-6s-2.27-.3,1.27-0.45c7.24-.32,14.57,0,21.82,0H309.39a28.46,28.46,0,0,1,4.88,0c-3.35-.62,1.4,1.55,3.1,2.69l55,36.75c4,2.67,7.73-3.78,3.76-6.44L325.34,50.28c-4-2.66-7.41-5.78-12.08-6.52-6.51-1-14,0-20.61,0H216.4c-10.82,0-26.53-3.37-36,2.72-19,12.2-37.64,25.16-56.45,37.74-3,2-2,6.95,1.88,6.95H374.22c4.79,0,4.8-7.45,0-7.45" transform="translate(-118.75 -42.83)"/><path class="cls-2" d="M129.76,87.43v36.3c0,6.39,9.93,6.41,9.93,0V87.43c0-6.39-9.93-6.41-9.93,0" transform="translate(-118.75 -42.83)"/><path class="cls-2" d="M121.15,106.08h27.16c3.2,0,3.2-5,0-5H121.15c-3.2,0-3.2,5,0,5" transform="translate(-118.75 -42.83)"/><path class="cls-2" d="M121.15,118h27.16c3.2,0,3.2-5,0-5H121.15c-3.2,0-3.2,5,0,5" transform="translate(-118.75 -42.83)"/><path class="cls-2" d="M360.3,87.43v36.3c0,6.39,9.93,6.41,9.93,0V87.43c0-6.39-9.93-6.41-9.93,0" transform="translate(-118.75 -42.83)"/><path class="cls-2" d="M351.69,106.08h27.16c3.2,0,3.2-5,0-5H351.69c-3.2,0-3.2,5,0,5" transform="translate(-118.75 -42.83)"/><path class="cls-2" d="M351.69,118h27.16c3.2,0,3.2-5,0-5H351.69c-3.2,0-3.2,5,0,5" transform="translate(-118.75 -42.83)"/><rect class="cls-2" x="0.21" y="401.93" width="31.55" height="12.42" rx="3.98" ry="3.98"/><rect class="cls-2" x="230.75" y="401.93" width="31.55" height="12.42" rx="3.98" ry="3.98"/></g></svg>