<?xml version="1.0" encoding="UTF-8"?>
<!DOCTYPE svg PUBLIC "-//W3C//DTD SVG 1.1//EN" "http://www.w3.org/Graphics/SVG/1.1/DTD/svg11.dtd">
<!-- Creator: CorelDRAW X7 -->
<svg xmlns="http://www.w3.org/2000/svg" xml:space="preserve" width="42.3332mm" height="42.3332mm" version="1.1" style="shape-rendering:geometricPrecision; text-rendering:geometricPrecision; image-rendering:optimizeQuality; fill-rule:evenodd; clip-rule:evenodd"
viewBox="0 0 4233 4233"
 xmlns:xlink="http://www.w3.org/1999/xlink">
 <defs>
  <style type="text/css">
   <![CDATA[
    .fil0 {fill:#008DD2;fill-rule:nonzero}
   ]]>
  </style>
 </defs>
 <g id="Ebene_x0020_1">
  <metadata id="CorelCorpID_0Corel-Layer"/>
  <g id="_1819189927728">
   <polygon class="fil0" points="2427,1368 2427,1782 3131,1782 3014,1368 "/>
   <polygon class="fil0" points="2431,2331 3252,2331 3134,1916 2431,1916 "/>
   <path class="fil0" d="M235 3014l353 -1777 2502 0 447 1777 -3302 0zm2882 -1907l-2557 0c-74,0 -135,49 -135,109l-351 1820c0,59 60,108 134,108l3355 0c75,0 135,-49 135,-108l-446 -1820c0,-60 -61,-109 -135,-109l0 0z"/>
   <polygon class="fil0" points="1340,1368 707,1368 590,1782 1340,1782 "/>
   <polygon class="fil0" points="1512,1782 2263,1782 2263,1368 1512,1368 "/>
   <polygon class="fil0" points="476,2331 1344,2331 1344,1916 593,1916 "/>
   <polygon class="fil0" points="1515,2331 2266,2331 2266,1916 1515,1916 "/>
   <polygon class="fil0" points="382,2884 1344,2884 1344,2469 500,2469 "/>
   <polygon class="fil0" points="1515,2884 2266,2884 2266,2469 1515,2469 "/>
   <polygon class="fil0" points="2431,2469 2431,2884 3369,2884 3252,2469 "/>
   <polygon class="fil0" points="2022,3240 1725,3240 1725,3830 1377,3830 1377,4031 2379,4031 2379,3830 2022,3830 "/>
   <path class="fil0" d="M3200 1020c74,0 134,48 134,108l126 512c122,-102 202,-254 202,-426 0,-306 -248,-555 -555,-555 -238,0 -440,151 -518,361l611 0 0 0z"/>
   <path class="fil0" d="M4151 1202l-304 -82c-4,-1 -9,0 -12,3 -3,2 -5,5 -5,9l0 164c0,4 2,8 5,11 3,2 8,3 12,2l304 -82c11,-3 11,-22 0,-25l0 0z"/>
   <path class="fil0" d="M3025 518l164 0c4,0 8,-2 10,-5 3,-3 4,-7 2,-11l-80 -300 -28 0 -81 300c-1,4 0,8 3,11 2,3 6,5 10,5l0 0z"/>
   <path class="fil0" d="M3657 780c3,3 7,4 11,3 4,0 8,-2 10,-6l157 -273c6,-11 -7,-24 -18,-18l-273 158c-4,2 -6,5 -6,9 -1,5 0,8 3,11l116 116z"/>
   <path class="fil0" d="M3615 1652c-2,-3 -6,-6 -10,-7 -4,0 -8,1 -10,4l-107 107 10 39 257 148c10,5 24,-8 18,-18l-158 -273z"/>
   <path class="fil0" d="M2483 784c4,0 8,-1 11,-4l116 -116c2,-3 4,-6 4,-11 0,-3 -3,-7 -6,-8l-253 -137c-9,-5 -23,8 -18,18l138 252c2,3 4,5 8,6l0 0z"/>
  </g>
 </g>
</svg>
