<?xml version="1.0" encoding="utf-8"?>
<!-- Generator: Adobe Illustrator 17.0.0, SVG Export Plug-In . SVG Version: 6.00 Build 0)  -->
<!DOCTYPE svg PUBLIC "-//W3C//DTD SVG 1.1//EN" "http://www.w3.org/Graphics/SVG/1.1/DTD/svg11.dtd">
<svg version="1.1" id="Ebene_1" xmlns="http://www.w3.org/2000/svg" xmlns:xlink="http://www.w3.org/1999/xlink" x="0px" y="0px"
	 width="208.635px" height="67.551px" viewBox="0 0 208.635 67.551" enable-background="new 0 0 208.635 67.551"
	 xml:space="preserve">
<g>
	<g>
		<path fill="#3B3C3D" d="M72.051,25.76l0.321,8.441c0.071,2.029,0.036,3.419-0.071,5.128h0.071c0.534-1.531,1.247-3.134,2.03-4.879
			l4.203-8.69h3.455l0.712,8.477c0.143,1.958,0.214,3.561,0.178,5.092h0.071c0.534-1.674,1.068-3.241,1.781-5.092l3.739-8.477h4.203
			l-8.512,17.344h-3.882l-0.784-7.551c-0.143-1.709-0.178-3.276-0.178-5.128h-0.071c-0.855,2.102-1.282,3.419-2.066,4.95
			l-3.846,7.729h-3.882L67.92,25.76H72.051z"/>
		<path fill="#3B3C3D" d="M104.428,42.107c-1.709,0.89-4.024,1.353-6.125,1.353c-4.808,0-7.123-2.92-7.123-7.158
			c0-5.235,3.846-10.933,9.829-10.933c3.419,0,5.592,1.995,5.592,4.879c0,4.452-4.665,5.876-11.361,5.733
			c-0.071,0.605,0.071,1.78,0.463,2.457c0.677,1.176,1.923,1.781,3.562,1.781c1.958,0,3.526-0.499,4.772-1.14L104.428,42.107z
			 M100.475,28.467c-2.6,0-4.309,2.315-4.808,4.416c4.273,0.071,7.016-0.534,7.016-2.6
			C102.683,29.143,101.793,28.467,100.475,28.467z"/>
		<path fill="#3B3C3D" d="M107.386,46.203c1.033,0.605,2.956,1.032,4.595,1.032c2.706,0,4.772-1.282,5.626-5.307l0.427-1.958h-0.071
			c-1.424,2.065-3.24,3.062-5.448,3.062c-3.455,0-5.413-2.85-5.449-6.126c0-5.769,4.167-11.539,11.361-11.539
			c2.243,0,4.416,0.499,6.019,1.211l-2.636,14.317c-0.641,3.383-1.638,6.09-3.562,7.728c-1.816,1.496-4.273,1.924-6.446,1.924
			c-2.208,0-4.273-0.463-5.413-1.176L107.386,46.203z M119.921,29.037c-0.427-0.214-1.317-0.428-2.279-0.428
			c-3.633,0-6.196,3.918-6.196,7.657c-0.036,1.816,0.712,3.525,2.777,3.525c2.065,0,4.132-2.457,4.737-5.591L119.921,29.037z"/>
		<path fill="#3B3C3D" d="M136.165,43.104c0.036-1.033,0.179-2.422,0.321-3.918h-0.107c-1.709,3.205-3.988,4.31-6.196,4.31
			c-3.099,0-5.129-2.422-5.129-5.912c0-5.912,4.132-12.215,12.216-12.215c1.888,0,3.917,0.356,5.235,0.784l-1.781,9.046
			c-0.498,2.6-0.783,5.841-0.712,7.906H136.165z M137.875,28.752c-0.428-0.107-0.962-0.178-1.71-0.178
			c-3.846,0-6.802,4.309-6.802,8.262c0,1.816,0.677,3.312,2.493,3.312c1.923,0,4.273-2.422,5.093-6.838L137.875,28.752z"/>
		<path fill="#3B3C3D" d="M151.695,20.988l-0.891,4.772h3.918l-0.641,3.206h-3.883l-1.389,7.016
			c-0.143,0.819-0.285,1.71-0.285,2.457c0,0.927,0.428,1.532,1.532,1.532c0.498,0,0.997,0,1.424-0.071l-0.392,3.24
			c-0.605,0.214-1.709,0.356-2.707,0.356c-2.849,0-4.131-1.567-4.131-3.562c0-0.997,0.107-1.959,0.392-3.241l1.496-7.728h-2.351
			l0.605-3.206h2.351l0.712-3.739L151.695,20.988z"/>
		<path fill="#3B3C3D" d="M166.939,42.107c-1.709,0.89-4.024,1.353-6.125,1.353c-4.808,0-7.123-2.92-7.123-7.158
			c0-5.235,3.847-10.933,9.829-10.933c3.419,0,5.592,1.995,5.592,4.879c0,4.452-4.665,5.876-11.36,5.733
			c-0.071,0.605,0.07,1.78,0.463,2.457c0.676,1.176,1.923,1.781,3.561,1.781c1.959,0,3.526-0.499,4.772-1.14L166.939,42.107z
			 M162.986,28.467c-2.6,0-4.309,2.315-4.808,4.416c4.273,0.071,7.016-0.534,7.016-2.6
			C165.194,29.143,164.304,28.467,162.986,28.467z"/>
		<path fill="#3B3C3D" d="M181.722,42.499c-0.998,0.498-2.778,0.961-4.986,0.961c-4.345,0-7.016-2.777-7.016-6.908
			c0-6.055,4.594-11.183,11.04-11.183c1.531,0,2.885,0.392,3.525,0.677l-1.068,3.241c-0.641-0.285-1.46-0.534-2.6-0.534
			c-4.024,0-6.553,3.704-6.553,7.301c0,2.6,1.495,4.06,3.811,4.06c1.603,0,2.813-0.427,3.704-0.818L181.722,42.499z"/>
		<path fill="#3B3C3D" d="M183.468,43.104l4.772-25.286h4.167l-2.03,10.542h0.071c1.46-1.816,3.384-2.992,5.806-2.992
			c2.386,0,4.345,1.496,4.345,4.666c0,0.89-0.107,2.101-0.285,3.063l-1.923,10.007h-4.132l1.853-9.723
			c0.106-0.677,0.214-1.424,0.214-2.279c0-1.318-0.605-2.351-2.173-2.351c-2.03,0-4.31,2.422-4.986,6.09l-1.566,8.263H183.468z"/>
	</g>
	<g>
		<g>
			<g>
				<path fill="#A0C52A" d="M36.19,36.964c0,0,0.001,5.964-4.379,10.421c0,0-5.788,5.777-3.141,12.735
					c1.841,0.397,3.75,0.612,5.709,0.612c1.613,0,3.189-0.15,4.724-0.421C40.886,55.6,42.71,45.795,36.19,36.964z"/>
			</g>
		</g>
		<g>
			<g>
				<path fill="#A0C52A" d="M34.38,6.818c-14.888,0-26.957,12.069-26.957,26.957c0,10.275,5.75,19.205,14.206,23.754
					c-3.583-8.498,1.014-14.292,1.014-14.292c6.401-9.124,2.925-17.631,2.925-17.631c3.196,3.722,5.286,7.574,6.611,11.317
					c0.162-2.558,0.161-5.035-0.128-7.108c0,0,0.054-5.009-7.529-13.308c0,0,7.104,3.02,12.536,8.981
					c2.526-7.958,0.638-14.879,0.638-14.879c13.565,19.956,9.598,41.664,8.155,47.564c9.151-4.31,15.486-13.612,15.486-24.397
					C61.337,18.888,49.268,6.818,34.38,6.818z"/>
			</g>
		</g>
	</g>
</g>
</svg>
