<?xml version="1.0" encoding="UTF-8"?>
<svg id="Icon" xmlns="http://www.w3.org/2000/svg" viewBox="0 0 24 24">
    <g fill="currentColor">
        <path class="cls-1" d="M14.2,15.31l-5.51-5.51V2l-6.69,6.69v7.8l5.51,5.51h7.8l6.69-6.69h-7.8ZM14.89,21h-6.97l-4.93-4.93v-6.97l4.69-4.69v5.8l.29.29,5.51,5.51.29.29h5.8l-4.69,4.69Z"/>
        <polygon class="cls-1" points="11.38 6.58 12.12 6.16 12.11 7 12.88 7 12.88 6.16 13.61 6.58 13.99 5.93 13.25 5.5 14 5.08 13.62 4.42 12.88 4.84 12.89 4 12.12 4 12.12 4.86 11.38 4.43 11 5.08 11.73 5.5 11 5.92 11.38 6.58"/>
        <polygon class="cls-1" points="17.38 12.58 18.12 12.16 18.11 13 18.88 13 18.88 12.16 19.61 12.58 19.99 11.93 19.25 11.5 20 11.08 19.62 10.42 18.88 10.84 18.89 10 18.12 10 18.12 10.86 17.38 10.43 17 11.08 17.73 11.5 17 11.92 17.38 12.58"/>
    </g>
</svg>
