<?xml version="1.0" encoding="UTF-8"?>
<svg id="Icon" xmlns="http://www.w3.org/2000/svg" viewBox="0 0 24 24">
    <g fill="currentColor">
        <path d="M20.77,14.36c.08.07.21.07.29,0l.42-.43c.08-.08.08-.2,0-.28l-1.13-1.13c-.08-.08-.21-.08-.28,0l-.43.42c-.08.08-.08.21,0,.28l1.13,1.14Z"/>
        <rect x="20" y="8" width="2" height="1" rx=".2" ry=".2"/>
        <path d="M20.07,4.48c.07.07.2.07.28,0l1.13-1.14c.08-.07.08-.2,0-.28l-.42-.42c-.08-.08-.21-.08-.29,0l-1.13,1.13c-.08.08-.08.2,0,.28l.43.43Z"/>
        <rect x="14" y="2" width="1" height="2" rx=".2" ry=".2"/>
        <path d="M8.65,4.48c.08.07.21.07.28,0l.43-.43c.08-.08.08-.2,0-.28l-1.13-1.13c-.08-.08-.21-.08-.29,0l-.42.42c-.08.08-.08.21,0,.28l1.13,1.14Z"/>
        <path d="M19.69,14h-1.44c-.27,0-.5-.23-.5-.5v-1.5h1.25v-7h-9v4.07l-2.43,2.43h-2.6l-2.97,2.97v4.41l3.12,3.12h14.52l2.36-2.36v-3.33l-2.31-2.31ZM11,6.5c0-.28.22-.5.5-.5h6c.28,0,.5.22.5.5v4c0,.27-.22.5-.5.5h-.09l-2.04-2h-4.37v-2.5ZM21,19.22l-1.77,1.78H5.53l-2.53-2.54v-3.58l2.38-2.38h2.6l2.5-2.5h4.48l1.04,1.02.75.73v3.25h2.53l1.72,1.72v2.5Z"/>
        <rect x="7" y="8" width="2" height="1" rx=".2" ry=".2"/>
    </g>
</svg>
