<?xml version="1.0" encoding="UTF-8"?>
<svg id="Icon" xmlns="http://www.w3.org/2000/svg" viewBox="0 0 24 24">
    <g fill="currentColor">
        <path class="cls-1" d="M22,11.48h-5.46l-3.86-3.93V2l-4.69,4.76v5.12l-1.26,1.25h-2.21l-2.52,2.51v3.72l2.65,2.64h12.34l2.01-1.99v-2.82l-1.33-1.32,4.33-4.39ZM8.99,7.17l2.69-2.73v3.52l.28.29,3.87,3.93.29.3h3.49l-2.72,2.76h-1.5v-2.25l-2.03-1.97h-4.37v-3.85ZM18,17.61v1.98l-1.42,1.41H5.06l-2.06-2.05v-2.9l1.94-1.92h2.2l.3-.29,1.03-1.03.71-.7.09-.09h3.68l1.44,1.39v2.83h2.23l1.38,1.37Z"/>
        <polygon class="cls-1" points="14.38 5.58 15.12 5.16 15.11 6 15.88 6 15.88 5.16 16.61 5.58 16.99 4.93 16.25 4.5 17 4.08 16.62 3.42 15.88 3.84 15.89 3 15.12 3 15.12 3.86 14.38 3.43 14 4.08 14.73 4.5 14 4.92 14.38 5.58"/>
        <polygon class="cls-1" points="18.38 9.58 19.12 9.16 19.11 10 19.88 10 19.88 9.16 20.61 9.58 20.99 8.93 20.25 8.5 21 8.08 20.62 7.42 19.88 7.84 19.89 7 19.12 7 19.12 7.86 18.38 7.43 18 8.08 18.73 8.5 18 8.92 18.38 9.58"/>
    </g>
</svg>
