<?xml version="1.0" encoding="UTF-8"?>
<svg id="Icon" xmlns="http://www.w3.org/2000/svg" viewBox="0 0 24 24">
    <g fill="currentColor">
        <path class="cls-1" d="M19.69,7h-1.44c-.27,0-.5-.22-.5-.5v-2.16l-2.38-2.34h-5.3l-2.5,2.5h-2.6l-2.97,2.97v4.41l3.12,3.12h2.55l-.92,1h3.38l-1.13,6,6.42-7h4.22l2.36-2.36v-3.33l-2.31-2.31ZM10.63,18.74l.7-3.74h-2.31l4.35-4.74-.7,3.74h2.31l-4.35,4.74ZM21,12.23l-1.77,1.77h-2.9l.92-1h-3.37l1.12-6-6.42,7h-3.05l-2.53-2.53v-3.59l2.38-2.38h2.6l2.5-2.5h4.48l1.79,1.76v3.24h2.53l1.72,1.72v2.51Z"/>
    </g>
</svg>
