<?xml version="1.0" encoding="UTF-8"?>
<svg id="Icon" xmlns="http://www.w3.org/2000/svg" viewBox="0 0 24 24">
  <defs>
    <style>
      .cls-1 {
        fill: currentColor;
      }
    </style>
  </defs>
  <path class="cls-1" d="M14.08,4.01h-4.14l-2.93,1.76v4.48l2.93,1.76h4.14l2.93-1.76v-4.48l-2.93-1.76ZM16.01,9.69l-2.21,1.32h-3.58l-2.21-1.32v-.84l1.93,1.16h4.14l1.93-1.16v.84ZM16.01,7.69l-2.21,1.32h-3.58l-2.21-1.32v-1.36l2.21-1.32h3.58l2.21,1.32v1.36Z"/>
  <path class="cls-1" d="M12.01,20.01h-4v-3.5c0-.28-.22-.5-.5-.5h-2.5v-2.5c0-.28-.22-.5-.5-.5h-2.5v-1h4v2.5c0,.28.22.5.5.5h2.5v3.5c0,.28.22.5.5.5h1c.28,0,.5-.22.5-.5v-2.5h4v1.5c0,.28.22.5.5.5h1c.28,0,.5-.22.5-.5v-2.5h1.5c.28,0,.5-.22.5-.5v-1.5h3v1h-1.5c-.28,0-.5.22-.5.5v1.5h-1.5c-.28,0-.5.22-.5.5v2.5h-4v-1.5c0-.28-.22-.5-.5-.5h-1c-.28,0-.5.22-.5.5v2.5Z"/>
</svg>
