<?xml version="1.0" encoding="UTF-8"?>
<svg id="Icon" xmlns="http://www.w3.org/2000/svg" viewBox="0 0 48 48">
  <defs>
    <style>
      .cls-1 {
        fill: currentColor;
      }
    </style>
  </defs>
  <path class="cls-1" d="M26.49,12h-4.97l-3.52,2.05v6.9l3.52,2.05h4.97l3.51-2.05v-6.9l-3.51-2.05ZM29,20.38l-2.78,1.62h-4.43l-2.79-1.62v-.85l2.52,1.47h4.97l2.51-1.47v.85ZM29,18.38l-2.78,1.62h-4.43l-2.79-1.62v-.85l2.52,1.47h4.97l2.51-1.47v.85ZM29,16.38l-2.78,1.62h-4.43l-2.79-1.62v-1.76l2.79-1.62h4.43l2.78,1.62v1.76Z"/>
  <path class="cls-1" d="M24,38h-8v-6c0-.55-.45-1-1-1h-6v-5c0-.55-.45-1-1-1h-4v-1h6v5c0,.55.45,1,1,1h6v6c0,.55.45,1,1,1h4c.55,0,1-.45,1-1v-4h6v2c0,.55.45,1,1,1h4c.55,0,1-.45,1-1v-4h3c.55,0,1-.45,1-1v-4h5v1h-3c-.55,0-1,.45-1,1v4h-3c-.55,0-1,.45-1,1v4h-8v-2c0-.55-.45-1-1-1h-2c-.55,0-1,.45-1,1v4Z"/>
</svg>
