<?xml version="1.0" standalone="no"?>
<!DOCTYPE svg PUBLIC "-//W3C//DTD SVG 20010904//EN"
 "http://www.w3.org/TR/2001/REC-SVG-20010904/DTD/svg10.dtd">
<svg version="1.0" xmlns="http://www.w3.org/2000/svg"
 width="512.000000pt" height="512.000000pt" viewBox="0 0 512.000000 512.000000"
 preserveAspectRatio="xMidYMid meet">
<metadata>
Created by potrace 1.14, written by Peter Selinger 2001-2017
</metadata>
<g transform="translate(0.000000,512.000000) scale(0.100000,-0.100000)"
fill="#000000" stroke="none">
<path d="M3396 5109 c3 -5 -1 -11 -8 -14 -22 -9 -20 -56 2 -75 11 -9 16 -20
13 -24 -4 -4 0 -4 10 0 11 4 17 1 17 -7 0 -8 6 -5 16 7 8 10 12 12 8 4 -7 -12
-5 -13 8 -3 8 7 19 9 23 5 5 -4 5 -1 1 6 -4 6 -2 12 4 12 6 0 8 4 5 10 -3 5
-1 19 6 31 8 15 8 19 0 15 -6 -4 -11 0 -11 8 0 9 -5 16 -11 16 -5 0 -8 4 -5 9
3 4 -15 8 -39 8 -24 0 -42 -4 -39 -8z"/>
<path d="M3440 4564 c0 -6 -11 -10 -25 -9 -14 2 -25 -1 -25 -6 0 -5 -7 -9 -15
-9 -8 0 -15 -5 -15 -11 0 -6 -7 -8 -15 -5 -10 3 -15 1 -13 -7 1 -6 -3 -22 -10
-35 -7 -12 -10 -27 -7 -32 3 -6 1 -10 -6 -10 -8 0 -8 -4 1 -15 7 -8 9 -15 5
-15 -4 0 -1 -8 6 -17 12 -14 12 -16 -1 -9 -8 4 -6 0 4 -8 11 -9 16 -16 12 -16
-10 0 15 -22 44 -39 26 -15 102 -22 94 -9 -2 3 0 9 6 13 5 3 10 1 10 -5 0 -6
5 -8 10 -5 6 4 8 11 5 16 -4 5 0 9 8 9 14 0 32 27 29 43 -1 4 3 7 9 7 6 0 9
10 8 23 -2 12 0 28 4 35 5 7 3 12 -3 12 -7 0 -10 7 -6 15 3 9 0 15 -9 15 -8 0
-15 9 -15 21 0 11 -4 17 -10 14 -5 -3 -10 1 -10 9 0 14 -17 19 -46 15 -4 0
-11 5 -15 13 -5 7 -9 8 -9 2z"/>
<path d="M1531 4511 c-6 -9 -9 -10 -5 -2 5 9 3 12 -4 7 -7 -4 -12 -14 -12 -22
0 -8 -5 -14 -11 -14 -6 0 -9 -9 -6 -20 3 -11 2 -20 -1 -20 -4 0 -7 -11 -7 -25
0 -14 6 -25 13 -25 6 0 12 -7 12 -15 0 -9 9 -15 23 -15 18 0 19 -2 7 -11 -12
-8 -8 -10 17 -6 18 2 35 -1 37 -7 3 -7 5 -6 5 1 1 7 8 10 18 6 11 -4 14 -3 9
5 -4 7 -1 12 9 12 10 0 13 5 9 12 -5 7 -2 9 8 5 13 -4 16 2 14 34 0 21 3 40 7
42 5 1 -6 18 -25 37 -38 40 -95 50 -117 21z"/>
<path d="M2773 4493 c4 -6 2 -17 -5 -25 -19 -20 -21 -40 -6 -49 11 -7 10 -9
-1 -9 -8 0 -4 -8 10 -19 13 -10 30 -16 39 -13 13 5 13 4 0 -13 -13 -16 -10
-16 16 3 17 12 35 18 39 14 5 -4 5 -2 2 4 -4 7 0 17 8 24 11 9 12 17 4 31 -5
10 -7 19 -4 19 4 0 -1 7 -10 16 -19 19 -65 27 -65 12 0 -6 -7 -4 -17 3 -9 8
-14 9 -10 2z"/>
<path d="M3387 4057 c4 -6 -2 -8 -15 -5 -12 4 -28 -1 -40 -13 -11 -10 -23 -15
-26 -12 -3 4 -6 0 -6 -7 0 -7 -3 -11 -6 -7 -7 7 -42 -26 -37 -35 2 -5 -3 -8
-12 -8 -9 0 -14 -4 -11 -9 4 -5 2 -11 -3 -13 -5 -1 -11 -10 -13 -18 -2 -8 -7
-18 -11 -21 -5 -4 -10 -18 -10 -33 -1 -14 -4 -26 -7 -26 -3 0 -4 -19 -3 -42 4
-57 7 -70 18 -88 5 -8 10 -22 12 -30 1 -8 7 -16 13 -18 5 -2 8 -8 4 -13 -3 -5
2 -9 10 -9 9 0 16 -9 16 -20 0 -11 5 -20 11 -20 15 0 39 -26 39 -43 0 -9 5
-17 10 -19 14 -4 21 -48 8 -48 -6 0 -8 -3 -5 -7 4 -3 -1 -12 -11 -20 -9 -8
-11 -11 -4 -8 11 6 11 3 1 -13 -7 -12 -15 -20 -18 -19 -10 3 -50 -41 -43 -47
3 -3 -2 -6 -11 -6 -9 0 -17 -6 -17 -14 0 -8 -7 -17 -16 -20 -8 -3 -12 -10 -9
-16 3 -5 1 -10 -5 -10 -6 0 -8 -4 -5 -10 3 -5 1 -10 -5 -10 -6 0 -9 -4 -6 -9
4 -5 0 -12 -6 -14 -10 -4 -10 -6 0 -6 10 -1 10 -5 -2 -17 -13 -12 -14 -20 -5
-36 6 -11 7 -18 1 -14 -6 3 -9 -7 -8 -24 0 -17 5 -30 11 -30 5 0 3 -5 -5 -10
-8 -5 -10 -10 -4 -10 6 0 11 -6 12 -12 3 -34 11 -53 22 -50 6 1 9 -2 6 -7 -4
-5 4 -20 16 -32 13 -12 17 -19 10 -14 -11 6 -11 3 -1 -13 7 -12 15 -19 19 -17
8 5 29 -22 22 -29 -3 -4 1 -4 11 0 11 4 17 1 17 -7 0 -7 3 -9 7 -6 3 4 12 -1
20 -11 10 -11 12 -12 8 -2 -4 10 -2 9 8 -2 8 -10 16 -16 19 -13 2 3 19 1 36
-4 23 -7 32 -6 32 2 0 7 4 6 10 -3 5 -8 10 -11 10 -6 0 5 6 3 14 -3 11 -9 16
-9 22 0 5 8 3 9 -6 4 -9 -5 -11 -4 -6 4 6 9 11 9 24 -1 13 -11 14 -11 7 1 -6
11 -4 13 8 8 9 -3 19 -2 22 4 4 5 11 7 16 4 5 -4 9 -1 9 5 0 6 4 9 9 5 6 -3
14 3 20 12 6 10 11 14 11 9 0 -13 80 70 80 83 0 6 5 11 10 11 6 0 10 9 10 21
0 11 4 18 9 15 5 -4 7 4 3 16 -3 11 -1 19 4 16 11 -7 12 82 1 100 -5 7 -3 12
4 12 7 0 4 7 -7 15 -19 15 -19 15 1 8 18 -6 18 -5 6 10 -7 9 -10 17 -5 17 5 0
5 4 -1 8 -5 4 -17 16 -25 26 -13 18 -13 19 0 12 8 -4 5 1 -7 12 -12 11 -19 22
-16 26 4 3 -2 6 -13 6 -16 0 -17 2 -4 10 10 6 11 10 3 10 -15 0 -59 42 -56 52
2 4 -6 9 -16 13 -11 3 -22 13 -25 21 -3 8 -1 12 4 9 6 -3 7 1 4 9 -3 9 -11 16
-18 16 -6 0 -4 5 4 10 11 7 11 10 2 10 -14 0 -10 6 31 51 9 10 14 19 11 19 -4
0 5 11 20 25 15 14 24 25 20 25 -4 0 2 8 13 18 11 9 18 23 15 31 -3 8 0 11 7
7 7 -4 11 0 11 13 0 10 6 22 13 24 9 4 8 6 -2 6 -11 1 -11 4 0 18 12 15 12 16
-1 8 -12 -6 -13 -5 -2 6 6 7 12 19 12 27 0 8 -5 10 -12 6 -10 -6 -10 -4 0 8
10 12 10 18 1 23 -8 6 -7 10 2 16 11 7 11 9 1 9 -7 0 -12 8 -10 18 2 9 -3 16
-9 15 -7 -2 -12 0 -12 5 5 31 -3 62 -16 62 -8 0 -20 9 -27 20 -7 11 -18 20
-25 20 -7 0 -13 5 -13 10 0 6 -7 10 -16 10 -8 0 -13 4 -10 9 4 5 -5 8 -19 7
-14 -2 -22 1 -18 7 4 6 -4 8 -21 5 -14 -3 -29 -1 -32 3 -3 5 -14 4 -25 -1 -10
-6 -19 -7 -19 -2 0 5 -7 9 -15 9 -8 0 -11 -5 -8 -10z"/>
<path d="M1522 4031 c2 -8 -7 -15 -22 -17 -14 -3 -26 -9 -28 -14 -2 -6 -9 -10
-14 -10 -15 0 -69 -61 -63 -70 3 -5 -2 -11 -11 -14 -8 -3 -12 -10 -9 -16 3 -5
1 -10 -6 -10 -8 0 -8 -4 1 -15 10 -12 10 -15 0 -15 -7 0 -10 -6 -7 -13 3 -8 1
-20 -3 -28 -5 -8 -5 -19 1 -26 6 -7 8 -17 4 -23 -3 -5 -2 -10 4 -10 6 0 7 -7
4 -17 -5 -11 -3 -14 6 -8 10 6 11 2 6 -15 -5 -15 -4 -20 4 -16 6 4 14 -1 18
-11 7 -19 33 -49 33 -38 0 3 6 0 14 -7 8 -7 12 -16 9 -20 -2 -4 3 -5 11 -2 10
4 18 -1 22 -11 5 -13 9 -14 15 -3 6 8 12 9 17 3 12 -17 85 -29 75 -12 -4 6 0
8 9 4 9 -3 26 2 39 10 12 9 19 11 15 5 -11 -18 0 -15 20 6 10 9 22 17 28 17 6
1 10 6 9 13 -2 7 1 12 6 12 17 0 42 32 37 47 -3 8 -2 12 3 9 10 -7 21 17 21
45 0 10 6 19 13 19 9 0 8 3 -2 9 -9 6 -10 11 -2 15 6 4 8 13 4 19 -4 7 -9 21
-11 32 -4 29 -26 75 -35 75 -5 0 -5 5 -2 10 3 6 -1 10 -10 10 -9 0 -13 4 -10
10 3 5 -5 15 -19 22 -14 6 -26 14 -26 18 0 4 -15 11 -32 15 -38 9 -47 12 -50
15 -8 7 -56 5 -52 -2 8 -13 -10 -10 -25 5 -10 10 -12 9 -9 -2z"/>
<path d="M2804 3913 c5 -9 1 -13 -11 -13 -21 0 -68 -49 -68 -71 1 -8 -4 -17
-10 -21 -6 -5 -5 -8 3 -8 7 0 10 -4 7 -10 -3 -5 -2 -10 4 -10 5 0 18 -13 27
-29 10 -17 21 -28 26 -25 4 3 8 -1 8 -8 0 -9 3 -9 10 2 8 12 10 12 10 -5 0
-15 3 -17 9 -7 4 8 12 14 17 14 36 2 101 77 75 86 -6 2 -11 8 -11 13 0 6 5 7
11 3 12 -7 -18 43 -38 63 -9 10 -12 10 -16 0 -3 -7 -6 -4 -6 7 -1 11 -6 16
-15 13 -7 -3 -19 0 -26 6 -10 9 -11 9 -6 0z"/>
<path d="M2180 3867 c0 -6 -3 -8 -6 -4 -10 10 -36 -22 -28 -34 4 -7 3 -9 -4
-5 -7 4 -10 -1 -9 -14 1 -11 6 -20 11 -20 5 0 7 -3 3 -6 -3 -4 1 -13 9 -21 16
-17 64 -25 64 -11 0 5 4 7 9 3 5 -3 12 4 16 15 3 11 10 20 14 20 3 0 7 9 7 20
0 11 -3 20 -7 20 -4 0 -9 8 -12 19 -5 19 -67 36 -67 18z"/>
<path d="M2730 3763 c0 -6 8 -17 18 -24 16 -13 16 -13 2 6 -8 11 -16 22 -17
24 -2 2 -3 0 -3 -6z"/>
<path d="M1544 3472 c6 -9 1 -11 -18 -8 -18 3 -24 1 -20 -6 5 -7 0 -9 -14 -6
-12 4 -22 2 -22 -3 0 -5 -7 -9 -16 -9 -8 0 -12 -4 -9 -10 4 -6 -5 -10 -20 -10
-15 0 -24 -4 -20 -10 3 -5 -1 -10 -10 -10 -9 0 -14 -4 -11 -8 3 -5 -4 -15 -15
-22 -10 -8 -19 -20 -19 -28 0 -8 -5 -10 -12 -6 -7 4 -10 4 -6 -1 4 -4 2 -17
-4 -29 -12 -21 -17 -37 -20 -69 -2 -11 -8 -16 -18 -12 -9 3 -7 -1 5 -10 17
-14 18 -17 5 -25 -11 -8 -12 -12 -3 -18 7 -4 11 -17 11 -29 -3 -31 24 -103 35
-96 6 4 8 -3 4 -16 -3 -13 -3 -20 0 -17 9 8 43 -13 43 -27 0 -7 9 -19 19 -27
11 -7 18 -17 16 -21 -3 -4 3 -17 13 -29 19 -23 19 -70 0 -70 -5 0 -6 -4 -3
-10 3 -5 1 -10 -4 -10 -6 0 -10 -3 -10 -7 3 -20 -2 -26 -11 -13 -8 12 -10 11
-10 -7 0 -12 -3 -23 -7 -25 -5 -2 -21 -18 -38 -37 -16 -19 -23 -31 -15 -27 9
5 8 2 -2 -7 -10 -8 -15 -17 -11 -20 3 -4 1 -7 -5 -7 -6 0 -10 -8 -10 -17 1
-26 -5 -47 -17 -55 -6 -5 -5 -8 4 -8 11 0 11 -3 0 -16 -10 -12 -10 -17 0 -23
18 -11 18 -15 1 -36 -8 -11 -10 -16 -3 -12 7 4 15 -5 22 -23 8 -24 7 -29 -2
-25 -7 4 -3 -1 7 -9 11 -9 16 -16 12 -16 -4 0 0 -7 8 -16 9 -8 14 -20 10 -25
-3 -5 0 -8 8 -7 7 2 12 -2 11 -8 -1 -7 11 -17 27 -24 17 -7 30 -16 30 -21 0
-8 40 -24 53 -21 4 1 7 -3 7 -9 0 -5 5 -7 10 -4 6 3 10 1 10 -4 0 -6 5 -11 11
-11 5 0 7 6 3 13 -5 8 -2 8 9 -2 9 -7 17 -10 17 -6 0 4 8 1 17 -6 10 -9 14 -9
10 -2 -6 9 1 11 23 8 17 -2 30 1 30 7 0 6 9 8 20 5 11 -3 27 1 35 9 8 8 20 14
27 12 15 -3 74 50 71 63 -2 4 4 6 13 2 9 -3 14 0 12 8 -2 8 3 13 10 12 6 -2
12 2 12 7 0 6 7 10 15 10 8 0 15 4 15 8 0 5 10 8 23 6 12 -1 30 -3 40 -3 10
-1 15 -5 12 -11 -3 -5 -1 -10 4 -10 6 0 20 -8 31 -17 10 -10 31 -28 44 -40 14
-13 28 -23 31 -23 4 0 13 -7 22 -16 9 -8 22 -13 29 -10 8 3 14 1 14 -4 0 -5 7
-6 17 -3 10 4 14 2 10 -4 -3 -5 0 -10 8 -10 8 0 15 4 15 9 0 5 7 2 16 -7 11
-11 20 -13 28 -6 9 7 16 7 23 0 8 -8 13 -7 18 2 6 8 4 10 -6 4 -8 -5 -11 -4
-6 0 4 5 17 10 30 11 41 4 59 10 67 23 4 8 13 10 19 7 6 -4 11 -2 11 4 0 6 5
8 12 4 6 -4 8 -3 4 4 -3 6 4 18 16 27 13 8 23 21 23 28 1 6 6 11 13 10 7 -2
12 6 12 17 0 11 6 23 14 26 8 3 12 12 9 20 -3 8 0 14 7 14 10 0 10 3 0 15 -10
12 -10 15 0 15 7 0 10 7 7 15 -4 8 -2 17 3 20 9 6 8 24 -3 43 -5 6 -6 12 -2
12 3 0 1 10 -6 21 -8 16 -8 20 1 14 9 -5 8 -1 -1 16 -7 13 -12 27 -11 32 1 4
-3 7 -8 7 -6 0 -10 7 -10 16 0 9 -5 12 -12 8 -7 -5 -9 -2 -5 9 3 9 0 18 -9 21
-9 3 -12 10 -9 16 5 9 1 11 -20 10 -3 0 -17 11 -31 25 -14 14 -30 23 -35 20
-5 -4 -9 -1 -9 4 0 6 -6 11 -14 11 -8 0 -17 6 -19 13 -4 9 -6 9 -6 -1 -1 -8
-6 -10 -13 -6 -18 11 -108 12 -115 1 -3 -5 -9 -3 -14 4 -6 10 -9 11 -9 2 0 -7
-7 -13 -15 -13 -8 0 -15 -5 -15 -11 0 -6 -7 -9 -15 -5 -8 3 -15 1 -15 -4 0 -6
-6 -9 -12 -7 -7 1 -12 -4 -11 -10 2 -7 -6 -13 -17 -13 -11 0 -19 -6 -17 -12 1
-7 -3 -12 -10 -11 -6 2 -15 -7 -18 -18 -4 -13 -12 -18 -21 -15 -8 3 -13 2 -10
-3 3 -5 -2 -12 -12 -16 -26 -12 -62 -13 -62 -3 0 5 -5 6 -12 2 -6 -4 -16 0
-22 8 -6 8 -21 20 -34 27 -12 7 -20 16 -17 20 2 5 -5 11 -16 14 -15 4 -20 11
-15 22 3 9 2 14 -3 11 -11 -7 -33 18 -24 27 3 4 2 7 -4 7 -16 0 -22 61 -7 67
7 2 10 12 7 20 -4 10 -2 14 5 9 6 -3 13 2 17 13 3 11 19 31 35 44 16 14 26 28
23 31 -4 3 -1 6 5 6 7 0 12 7 12 15 0 8 5 15 12 15 6 0 8 3 5 7 -4 3 1 12 11
20 9 8 11 12 5 8 -15 -7 -18 11 -3 20 6 4 8 11 5 16 -4 5 0 9 7 9 9 0 9 3 -2
10 -13 9 -13 10 0 10 12 0 12 2 1 9 -9 6 -10 11 -2 15 6 4 11 13 11 19 0 7 -4
6 -10 -3 -6 -9 -10 -10 -10 -3 0 6 5 15 11 19 8 4 8 8 0 13 -6 4 -11 21 -13
39 -1 17 -8 34 -16 37 -8 3 -12 11 -9 18 2 6 -9 23 -24 37 -16 13 -29 30 -29
38 0 7 -4 10 -10 7 -5 -3 -10 1 -10 10 0 9 -5 13 -11 10 -5 -4 -18 -1 -27 7
-32 27 -68 38 -82 25 -9 -8 -11 -9 -7 -1 4 7 -2 14 -13 17 -13 3 -18 1 -13 -6
4 -7 -1 -6 -10 2 -13 10 -17 10 -17 1 0 -9 -4 -9 -17 1 -12 10 -15 11 -9 1z"/>
<path d="M2132 3296 c-38 -27 -54 -42 -32 -32 8 4 7 1 -4 -8 -10 -8 -15 -19
-11 -25 3 -6 2 -11 -2 -11 -5 0 -9 -16 -10 -35 0 -19 4 -35 9 -35 5 0 8 -5 6
-12 -6 -17 45 -67 54 -54 5 7 8 3 8 -8 0 -13 5 -17 20 -13 11 3 20 0 20 -5 0
-6 6 -5 15 2 8 7 15 9 15 5 0 -4 8 -1 17 6 14 12 16 12 9 -1 -4 -9 -2 -8 7 2
8 10 16 16 18 13 3 -2 16 9 29 25 23 28 36 110 18 110 -5 0 -7 3 -6 8 3 14
-25 61 -33 56 -5 -3 -9 0 -9 6 0 6 -4 8 -10 5 -5 -3 -10 -1 -10 6 0 7 -10 9
-25 7 -13 -3 -22 -1 -19 3 3 5 0 9 -5 9 -6 0 -11 -4 -11 -10 0 -5 -5 -10 -11
-10 -5 0 -7 5 -4 10 10 17 -8 10 -43 -14z"/>
<path d="M2790 3308 c0 -6 -3 -8 -7 -5 -3 4 -12 2 -20 -4 -7 -6 -13 -9 -13 -5
0 3 -8 -2 -18 -11 -11 -10 -17 -21 -15 -25 2 -5 -1 -8 -6 -8 -6 0 -10 -3 -10
-7 3 -19 -2 -34 -9 -29 -7 4 -8 -33 -2 -41 2 -2 3 -6 5 -10 6 -23 21 -50 37
-67 19 -21 92 -51 82 -34 -4 6 2 8 14 3 15 -4 34 2 59 19 21 14 33 26 28 26
-6 0 -3 6 5 13 23 19 28 47 16 86 -6 18 -5 22 5 15 10 -6 10 -3 -1 11 -35 44
-67 71 -78 67 -7 -2 -12 1 -12 7 0 6 -5 11 -11 11 -5 0 -8 -4 -5 -8 2 -4 -4
-8 -14 -8 -10 0 -16 4 -14 8 3 4 0 8 -5 8 -6 0 -11 -5 -11 -12z"/>
<path d="M4014 3283 c5 -8 1 -13 -9 -13 -11 0 -15 -5 -11 -15 3 -8 2 -14 -2
-14 -21 3 -28 -4 -27 -28 0 -16 -4 -31 -10 -35 -6 -5 -5 -8 3 -8 6 0 12 -7 12
-16 0 -18 23 -44 40 -44 6 0 9 -4 6 -9 -7 -10 20 -9 30 1 3 4 17 3 31 -3 16
-6 22 -6 18 1 -6 9 8 14 28 11 4 0 8 6 8 14 3 34 5 40 17 38 8 -2 9 4 2 23 -6
14 -8 30 -4 35 3 5 1 9 -4 9 -5 0 -12 8 -14 18 -3 10 -13 19 -22 20 -9 1 -23
3 -31 4 -8 1 -15 6 -15 11 0 5 -6 5 -13 -2 -10 -8 -17 -7 -27 2 -10 9 -11 9
-6 0z"/>
<path d="M948 3252 c-10 -2 -18 -8 -18 -13 0 -5 -6 -9 -14 -9 -8 0 -13 -8 -12
-17 2 -10 -2 -21 -8 -25 -8 -6 -8 -10 0 -15 6 -5 13 -16 17 -25 7 -19 53 -27
84 -14 14 5 19 14 16 24 -4 9 -2 13 3 9 6 -3 10 5 10 19 0 13 -4 24 -8 24 -4
0 -8 7 -8 16 0 8 -4 12 -10 9 -5 -3 -10 -2 -10 3 0 13 -20 19 -42 14z"/>
<path d="M2804 2845 c-5 -13 -9 -14 -15 -4 -5 9 -11 10 -21 2 -7 -6 -21 -9
-30 -8 -10 2 -18 -1 -18 -6 0 -5 -6 -8 -12 -6 -7 1 -12 -3 -11 -9 1 -6 -4 -11
-12 -11 -8 0 -12 5 -9 11 3 6 -6 -2 -20 -19 -14 -16 -26 -26 -26 -22 0 4 -6 2
-14 -5 -8 -7 -12 -16 -9 -20 2 -5 -1 -8 -7 -8 -6 0 -8 -4 -5 -10 3 -5 1 -10
-4 -10 -6 0 -11 -7 -11 -15 0 -8 -5 -15 -11 -15 -5 0 -7 5 -3 12 4 7 3 8 -4 4
-6 -4 -9 -13 -5 -21 3 -9 -2 -26 -10 -39 -12 -18 -13 -26 -4 -35 8 -8 8 -14 2
-19 -14 -10 -17 -32 -4 -32 5 0 7 -6 3 -12 -11 -17 -12 -48 -2 -42 4 3 8 -4 8
-15 0 -29 11 -52 22 -45 5 3 9 0 7 -7 -1 -8 -1 -23 0 -34 1 -17 3 -18 11 -5 8
13 10 13 10 -2 0 -10 9 -22 20 -28 11 -6 20 -18 20 -26 0 -8 4 -13 9 -9 5 3
17 -2 26 -11 9 -9 19 -14 22 -10 4 3 15 -1 25 -11 10 -9 18 -13 18 -8 0 4 7 2
15 -5 10 -9 15 -9 15 -1 0 6 4 11 10 11 5 0 6 -7 3 -17 -5 -12 -3 -14 8 -8 18
12 49 14 54 4 3 -4 14 -5 26 -2 16 5 18 8 7 15 -9 7 -7 8 9 5 13 -3 26 -1 29
5 3 5 13 7 21 4 8 -3 11 -2 8 3 -3 5 3 12 12 15 25 8 79 56 75 67 -1 5 5 9 13
9 8 0 15 5 15 11 0 5 5 7 10 4 6 -3 10 -1 10 6 0 9 3 9 14 0 11 -9 16 -9 22 0
4 8 3 9 -4 5 -7 -4 -12 -2 -12 3 0 6 11 10 25 9 14 -1 25 -6 25 -10 0 -4 3 -7
8 -7 20 3 32 -3 32 -17 0 -10 5 -14 16 -10 8 3 13 2 10 -3 -3 -5 1 -12 10 -15
8 -3 12 -11 9 -16 -4 -6 -3 -10 2 -9 20 3 34 -2 28 -10 -3 -6 4 -15 15 -21 11
-6 20 -16 19 -23 -3 -24 1 -38 10 -33 14 9 0 -37 -17 -56 -8 -10 -12 -18 -9
-18 4 0 -1 -9 -10 -19 -9 -11 -20 -18 -25 -15 -8 5 -12 -11 -9 -30 1 -5 -6 -6
-15 -2 -12 4 -15 2 -10 -9 3 -8 2 -15 -3 -15 -5 0 -16 -12 -26 -26 -9 -15 -12
-23 -6 -19 6 3 3 -9 -8 -28 -14 -25 -16 -38 -9 -52 6 -10 7 -15 1 -12 -6 4 -9
-12 -9 -38 1 -23 4 -41 9 -38 4 2 7 -7 7 -21 0 -33 10 -57 21 -50 5 3 6 -2 3
-10 -3 -9 -1 -16 5 -16 6 0 11 -10 11 -22 0 -19 2 -20 10 -8 8 13 10 13 10 -1
0 -9 7 -20 16 -23 8 -3 12 -11 8 -17 -4 -8 -3 -9 4 -5 13 8 55 -17 47 -27 -3
-4 -2 -5 2 -2 3 3 12 0 19 -6 8 -6 21 -9 29 -5 10 3 15 -1 15 -12 0 -10 3 -13
8 -7 8 12 52 15 52 4 0 -4 13 -4 29 1 21 6 31 5 35 -3 2 -7 5 -4 5 6 1 10 6
15 11 12 6 -4 17 -1 25 5 8 7 15 9 15 5 0 -4 6 -2 13 4 8 6 18 7 22 3 5 -4 6
-2 3 3 -3 6 0 16 8 23 11 10 14 10 14 0 0 -7 6 -4 12 7 6 11 20 28 31 38 11 9
16 17 11 17 -5 0 1 7 13 15 15 10 19 21 16 36 -4 15 -2 20 5 15 8 -5 10 -2 6
8 -3 9 -2 16 3 16 5 0 7 14 5 31 -4 25 -2 30 9 24 12 -8 12 -6 1 8 -8 9 -11
21 -8 26 4 5 1 13 -5 17 -8 5 -8 8 1 14 8 5 8 11 -3 22 -10 9 -12 20 -7 29 6
9 3 20 -8 31 -31 31 -47 52 -44 57 2 2 -3 8 -12 13 -9 5 -13 15 -9 21 4 7 -2
5 -12 -3 -14 -11 -17 -11 -11 -1 6 9 -1 21 -20 38 -16 13 -23 22 -16 18 15 -8
16 7 0 23 -7 7 -8 12 -2 12 5 0 2 5 -6 10 -10 6 -11 10 -2 10 6 0 12 7 12 16
0 9 5 12 12 8 6 -4 8 -3 5 3 -7 11 53 80 65 76 4 -2 5 4 2 12 -4 8 -1 15 5 15
6 0 11 7 11 15 0 8 3 15 8 15 9 0 28 46 36 88 3 20 2 31 -4 27 -6 -3 -7 1 -4
9 3 9 11 13 16 10 6 -4 2 5 -7 20 -13 19 -14 26 -4 26 10 0 10 3 2 11 -6 6 -9
18 -6 27 5 11 3 13 -7 7 -10 -6 -12 -3 -8 13 4 15 2 22 -9 22 -8 0 -12 4 -8 9
3 5 -2 16 -10 24 -8 9 -15 23 -15 32 0 9 -4 14 -9 10 -5 -3 -21 6 -34 19 -14
14 -28 22 -31 19 -3 -4 -6 -2 -6 4 0 5 -12 15 -27 22 -25 11 -25 11 -12 -6 13
-17 13 -17 -7 0 -11 9 -24 14 -27 10 -4 -3 -7 0 -7 8 0 11 -2 11 -10 -1 -6 -9
-10 -10 -10 -3 0 6 -9 10 -20 8 -11 -2 -20 2 -20 8 0 7 -4 6 -10 -3 -5 -8 -10
-11 -10 -6 0 5 -8 2 -17 -5 -15 -12 -16 -12 -8 1 7 12 6 13 -7 3 -8 -7 -18
-10 -21 -6 -4 3 -7 1 -7 -5 0 -7 -3 -11 -7 -11 -5 1 -11 0 -15 -1 -5 -1 -11
-3 -15 -5 -27 -7 -42 -19 -36 -28 4 -6 0 -8 -8 -5 -8 2 -22 -4 -31 -14 -10
-10 -15 -18 -10 -18 4 -1 -5 -8 -20 -16 -16 -8 -28 -20 -28 -26 0 -6 -3 -8 -7
-5 -3 4 -15 -1 -25 -10 -18 -16 -18 -16 -12 3 7 17 6 18 -11 4 -22 -18 -20
-18 -52 17 -14 15 -22 21 -18 13 3 -8 -5 -3 -19 13 -14 15 -30 27 -36 27 -6 0
-8 5 -5 10 3 6 -1 10 -10 10 -9 0 -13 4 -10 10 3 5 0 7 -8 4 -8 -3 -18 0 -23
7 -5 8 -3 10 6 4 8 -5 11 -4 6 3 -3 6 -15 9 -26 7 -11 -2 -20 1 -20 7 0 6 -9
8 -20 5 -11 -3 -20 -1 -20 5 0 6 -7 7 -16 4 -9 -4 -23 -1 -30 5 -11 9 -15 7
-20 -6z"/>
<path d="M955 2722 c-11 -2 -26 -9 -34 -16 -12 -8 -13 -8 -7 2 4 6 2 12 -3 12
-6 0 -11 -4 -11 -10 0 -5 -6 -10 -14 -10 -8 0 -17 -7 -20 -16 -3 -8 -10 -12
-16 -9 -5 3 -11 1 -11 -4 -1 -6 -3 -15 -4 -21 -1 -5 -3 -13 -4 -17 -1 -5 -5
-3 -9 4 -4 7 -9 -19 -10 -57 -1 -39 2 -71 8 -75 5 -3 10 -15 10 -26 0 -11 3
-18 8 -16 10 7 32 -19 24 -29 -4 -4 -1 -4 6 0 7 4 15 1 18 -9 4 -10 10 -12 18
-6 7 6 18 4 30 -5 16 -11 22 -11 35 -1 12 9 13 9 7 0 -4 -7 -2 -13 3 -13 6 0
11 5 11 11 0 8 6 7 17 -2 9 -8 14 -9 10 -3 -4 7 1 18 10 25 14 12 16 12 8 -1
-6 -11 -3 -10 12 3 11 9 23 14 27 10 4 -4 4 1 0 11 -5 14 -4 17 4 12 7 -4 12
-1 12 9 0 9 4 14 9 11 5 -4 7 4 3 16 -3 13 -1 19 5 15 6 -4 9 5 7 24 -3 22 0
28 9 23 9 -6 9 -4 -1 8 -7 9 -11 22 -10 29 2 8 -3 13 -11 11 -11 -2 -12 0 -3
11 10 11 9 17 -1 26 -8 6 -17 8 -20 4 -4 -3 -7 3 -7 15 0 16 -6 22 -21 22 -13
0 -18 4 -13 12 5 8 2 9 -9 5 -10 -4 -17 -1 -17 5 0 6 -3 8 -7 5 -3 -4 -11 -3
-17 1 -6 5 -20 6 -31 4z"/>
<path d="M3994 2719 c-5 -8 -3 -9 6 -4 9 5 11 4 6 -3 -4 -7 -14 -12 -22 -12
-17 0 -44 -23 -44 -38 0 -6 -7 -12 -15 -16 -8 -3 -15 -17 -15 -30 0 -20 -4
-24 -17 -19 -17 6 -17 5 0 -11 13 -13 15 -22 8 -29 -15 -15 -14 -30 1 -21 8 5
9 2 5 -9 -3 -10 -2 -17 3 -17 5 0 7 -6 4 -14 -3 -8 3 -19 15 -26 12 -6 21 -18
21 -28 0 -14 2 -14 9 -3 7 11 10 10 15 -6 5 -14 14 -19 36 -18 16 1 27 -2 24
-7 -3 -4 0 -8 5 -8 6 0 11 5 11 10 0 6 4 10 10 10 5 0 7 -8 4 -17 -5 -17 -5
-17 9 -1 8 10 16 15 20 12 11 -11 89 44 81 58 -3 4 2 8 10 8 10 0 13 6 10 15
-4 8 -2 15 4 15 14 0 10 112 -5 117 -7 3 -9 11 -6 20 4 10 2 14 -4 10 -6 -4
-13 2 -16 13 -3 11 -13 22 -24 25 -10 4 -30 12 -45 20 -18 9 -28 10 -28 3 0
-7 -5 -7 -14 1 -10 9 -16 9 -21 1 -5 -8 -10 -8 -20 0 -10 8 -15 8 -21 -1z"/>
<path d="M4624 2645 c-4 -8 -10 -12 -15 -9 -5 3 -9 -2 -9 -10 0 -9 -5 -16 -11
-16 -5 0 -8 -4 -5 -8 2 -4 1 -14 -4 -22 -5 -9 -5 -19 2 -27 7 -9 7 -13 -1 -13
-9 0 -9 -4 -1 -12 6 -7 18 -22 26 -33 9 -11 13 -14 9 -7 -3 6 -1 12 4 12 6 0
11 -7 11 -16 0 -8 5 -12 10 -9 6 3 10 2 10 -4 0 -14 86 17 102 37 11 13 11 15
-2 8 -12 -6 -12 -5 1 6 8 7 14 26 13 43 -2 41 -1 38 -30 71 -15 16 -23 22 -18
14 6 -12 5 -13 -7 -4 -8 6 -23 11 -34 11 -11 0 -26 -5 -34 -11 -11 -8 -13 -8
-7 2 4 6 5 12 1 12 -3 0 -8 -7 -11 -15z"/>
<path d="M345 2632 c5 -9 -1 -11 -19 -8 -15 3 -24 1 -21 -4 3 -5 -5 -16 -17
-24 -12 -9 -16 -16 -9 -16 11 0 11 -3 1 -15 -7 -8 -8 -15 -4 -15 5 0 14 -10
19 -22 6 -13 19 -23 32 -24 12 -1 28 -4 37 -7 11 -4 13 -1 9 10 -5 12 -2 15 9
10 12 -4 15 0 13 19 -1 14 4 28 12 33 13 7 13 9 -1 14 -9 4 -16 14 -16 23 0 8
-6 14 -12 11 -7 -2 -19 3 -26 12 -8 9 -11 10 -7 3z"/>
<path d="M1525 2219 c3 -4 -2 -10 -11 -13 -8 -3 -12 -2 -9 4 10 17 -7 11 -22
-7 -8 -10 -12 -12 -8 -5 10 20 -3 14 -30 -15 -20 -22 -24 -24 -18 -8 5 15 0
13 -20 -9 -15 -16 -27 -33 -27 -37 0 -5 -3 -8 -7 -8 -20 3 -26 -2 -13 -11 13
-8 12 -10 -2 -10 -16 0 -23 -11 -19 -32 0 -5 -4 -8 -9 -8 -5 0 -9 -6 -7 -12 1
-7 -3 -12 -9 -11 -6 1 -9 -10 -6 -29 3 -21 1 -29 -7 -24 -8 5 -8 0 -1 -20 7
-19 7 -30 -1 -40 -9 -11 -9 -14 0 -14 7 0 11 -14 9 -36 -2 -27 3 -41 20 -54
24 -20 30 -35 10 -25 -7 4 0 -5 16 -18 18 -16 26 -29 21 -37 -5 -8 -4 -11 2
-7 13 8 53 -21 53 -39 0 -8 5 -14 10 -14 6 0 10 -7 10 -15 0 -8 6 -15 13 -15
12 0 14 -17 8 -73 -1 -5 -5 -5 -11 -2 -6 3 -7 -1 -4 -9 4 -11 0 -16 -11 -16
-9 0 -13 -5 -10 -10 4 -6 -6 -23 -22 -38 -37 -36 -63 -77 -63 -101 0 -10 -7
-22 -16 -25 -9 -3 -12 -11 -8 -18 12 -18 11 -58 -1 -58 -6 0 -6 -3 1 -8 6 -4
10 -17 9 -29 -1 -12 2 -20 7 -17 4 3 8 -6 8 -20 0 -14 5 -26 10 -26 6 0 10 -4
10 -10 0 -5 15 -25 34 -44 19 -19 32 -37 28 -42 -4 -4 -1 -4 7 1 9 5 20 0 33
-16 11 -13 17 -18 13 -11 -7 13 7 17 19 5 3 -4 12 -8 19 -9 68 -11 91 -15 98
-20 5 -3 6 1 4 8 -5 13 7 17 57 21 9 1 14 5 12 9 -5 8 11 12 29 9 5 -1 6 3 2
9 -3 5 1 10 10 10 9 0 13 5 10 10 -3 6 1 10 10 10 9 0 14 4 11 9 -3 5 4 11 16
14 12 4 19 9 15 13 -3 4 -1 16 5 28 14 24 18 41 22 76 1 14 6 31 10 38 4 7 3
12 -3 12 -6 0 -8 7 -5 15 4 8 1 22 -6 30 -10 12 -10 15 1 15 10 1 9 4 -3 14
-10 7 -15 16 -11 19 3 4 1 7 -6 7 -7 0 -10 4 -7 8 3 5 -10 25 -29 45 -19 21
-35 41 -35 46 0 5 -7 12 -16 15 -9 4 -14 9 -11 12 3 4 0 12 -7 20 -26 25 -1
114 26 97 6 -3 9 0 6 8 -3 8 6 22 19 32 13 10 21 23 18 28 -4 5 2 6 12 2 10
-3 15 -3 12 1 -4 4 4 19 17 33 13 14 24 32 24 39 0 8 4 14 9 14 6 0 8 9 6 20
-2 11 1 20 7 20 6 0 8 3 5 7 -4 3 -1 13 6 21 10 13 9 14 -3 7 -13 -8 -13 -7
-1 8 11 14 11 17 0 17 -11 0 -11 2 1 10 13 9 13 10 0 10 -13 0 -13 1 0 10 14
9 7 15 -14 11 -5 -1 -4 5 3 13 11 13 10 20 -4 42 -12 18 -13 24 -4 19 8 -3 7
-1 -2 7 -9 7 -14 19 -11 27 3 8 0 11 -6 7 -5 -3 -13 5 -16 18 -3 13 -15 26
-27 29 -12 3 -18 10 -14 16 3 6 -1 11 -10 11 -11 0 -15 5 -12 14 4 10 0 12
-14 9 -11 -3 -19 0 -19 8 0 7 -3 10 -6 6 -3 -3 -15 3 -27 13 -13 13 -25 16
-36 11 -9 -5 -25 -5 -36 0 -27 10 -37 11 -31 1 3 -5 -1 -9 -9 -9 -8 0 -15 3
-15 7 0 4 -7 7 -15 7 -8 0 -12 -4 -10 -8z m140 -9 c3 -5 1 -10 -4 -10 -6 0
-11 5 -11 10 0 6 2 10 4 10 3 0 8 -4 11 -10z"/>
<path d="M2205 2069 c5 -7 -3 -9 -23 -6 -21 4 -32 0 -36 -10 -3 -8 -10 -11
-16 -8 -5 3 -10 -1 -10 -10 0 -9 -3 -14 -7 -12 -5 3 -14 -1 -21 -9 -7 -8 -10
-14 -7 -14 3 0 1 -9 -5 -19 -7 -14 -6 -21 3 -24 6 -3 4 -6 -7 -6 -15 -1 -16
-4 -6 -16 6 -8 9 -19 5 -25 -3 -5 -1 -10 5 -10 6 0 8 -4 5 -10 -3 -5 -2 -10 3
-10 5 0 15 -11 22 -24 13 -25 47 -47 35 -23 -4 6 0 4 8 -5 10 -13 16 -15 25
-6 9 9 12 9 12 0 0 -18 63 -3 79 19 7 11 20 19 28 19 9 0 13 6 10 14 -3 8 2
17 11 21 14 5 14 7 2 15 -8 6 -10 10 -4 10 9 0 12 42 4 60 -1 3 -2 9 -1 13 1
5 -3 6 -9 2 -6 -4 -13 7 -17 25 -4 22 -8 28 -14 18 -6 -10 -9 -8 -9 7 0 17 -2
17 -10 5 -5 -8 -10 -10 -10 -4 0 6 -12 16 -26 22 -17 8 -23 9 -19 1z"/>
<path d="M2805 2071 c6 -11 3 -13 -13 -9 -15 4 -25 0 -32 -10 -5 -10 -10 -12
-10 -7 0 22 -50 -50 -50 -72 0 -15 -4 -22 -11 -17 -8 4 -8 1 -1 -12 5 -11 9
-31 8 -45 -1 -20 2 -25 14 -21 8 3 12 2 9 -2 -10 -10 34 -53 49 -48 6 2 12 0
12 -5 0 -5 10 -9 23 -7 12 1 32 3 45 3 13 1 20 5 17 11 -3 5 0 7 7 5 15 -6 58
37 58 56 0 7 8 18 18 26 9 8 12 12 6 9 -7 -3 -13 9 -17 34 -4 32 -47 110 -47
85 0 -4 -6 -2 -13 4 -8 6 -17 8 -20 4 -4 -3 -7 -1 -7 6 0 7 -6 11 -14 8 -7 -3
-19 0 -26 6 -10 9 -11 9 -5 -2z"/>
<path d="M976 2041 c5 -10 1 -11 -16 -6 -17 6 -21 4 -14 -6 6 -10 3 -10 -11 1
-15 12 -17 12 -10 1 6 -11 4 -13 -9 -8 -9 4 -15 3 -12 -2 3 -5 -1 -12 -10 -15
-8 -3 -12 -10 -9 -16 3 -5 1 -10 -5 -10 -7 0 -9 -7 -6 -16 4 -11 2 -15 -8 -11
-12 5 -12 2 -1 -20 8 -15 13 -29 11 -32 -5 -8 37 -45 55 -49 39 -10 49 -10 49
-2 0 5 9 7 20 5 11 -2 18 0 15 6 -4 5 -2 9 4 9 16 0 38 52 35 83 -2 16 -12 37
-23 46 -11 10 -17 22 -13 26 4 4 0 6 -8 3 -8 -3 -21 2 -28 11 -8 9 -10 10 -6
2z"/>
<path d="M4040 2041 c0 -6 -6 -11 -13 -11 -18 0 -58 -35 -50 -44 3 -3 1 -6 -6
-6 -7 0 -10 -4 -7 -9 4 -5 0 -12 -6 -14 -10 -4 -9 -6 1 -6 10 -1 11 -4 2 -15
-9 -11 -9 -16 0 -22 8 -5 9 -3 4 6 -5 8 -4 11 3 6 6 -4 9 -13 6 -21 -6 -13 30
-52 44 -48 4 1 18 -5 31 -14 13 -8 20 -10 17 -4 -5 7 1 11 14 11 11 0 23 7 26
15 4 8 10 13 14 10 8 -5 20 25 26 65 2 13 -5 33 -14 44 -13 15 -13 17 -2 11 8
-4 6 1 -5 12 -11 11 -22 19 -24 17 -2 -2 -10 1 -18 7 -9 9 -13 8 -13 0 0 -6
-5 -11 -11 -11 -5 0 -8 4 -4 9 3 5 1 12 -5 16 -5 3 -10 1 -10 -4z"/>
<path d="M3395 1530 c3 -5 -4 -7 -15 -5 -11 2 -20 -1 -20 -7 0 -6 -3 -8 -6 -5
-4 3 -16 1 -28 -5 -11 -7 -24 -12 -28 -13 -3 0 -10 -4 -15 -9 -5 -5 -2 -6 7
-1 8 4 1 -5 -16 -21 -17 -17 -29 -35 -26 -42 2 -7 -2 -12 -9 -12 -7 0 -10 -3
-6 -6 3 -4 -1 -20 -10 -37 -11 -23 -12 -32 -4 -35 9 -3 9 -8 0 -19 -8 -9 -9
-17 -3 -21 5 -4 11 -18 13 -32 1 -14 8 -28 15 -32 6 -4 7 -8 2 -8 -5 0 -3 -6
3 -13 6 -8 8 -16 5 -20 -3 -3 4 -8 15 -12 12 -3 19 -11 16 -16 -4 -5 1 -9 9
-9 9 0 16 -5 16 -11 0 -5 4 -8 9 -5 5 3 12 -1 15 -10 3 -8 10 -13 15 -9 5 3
12 1 15 -4 4 -5 17 -8 31 -6 14 1 25 -1 25 -4 0 -4 9 -7 19 -7 11 0 17 4 14 9
-2 4 8 5 23 1 21 -5 25 -4 19 6 -6 9 -4 11 4 6 7 -5 21 0 33 11 12 10 18 12
14 6 -5 -9 -2 -11 9 -7 9 4 14 13 11 20 -3 8 -2 13 2 13 20 -3 33 2 27 11 -3
6 1 10 10 10 9 0 13 5 10 10 -3 6 -1 10 4 10 6 0 11 9 11 19 0 11 5 23 10 26
6 4 8 11 5 16 -4 5 -3 9 2 9 11 0 4 102 -8 114 -5 6 -9 15 -9 20 0 6 5 4 10
-4 7 -11 10 -12 10 -2 0 8 -9 16 -20 19 -11 3 -18 9 -15 13 8 13 -53 73 -66
64 -8 -4 -10 -3 -5 4 4 7 2 12 -4 12 -6 0 -9 4 -6 9 3 4 -6 7 -19 5 -14 -1
-25 1 -25 4 0 4 -23 8 -50 9 -28 1 -48 -2 -45 -7z"/>
<path d="M2166 1404 c-4 -9 -9 -14 -13 -11 -3 4 -12 -1 -20 -11 -8 -9 -11 -11
-7 -3 4 9 3 12 -4 8 -5 -4 -8 -16 -5 -27 3 -11 0 -20 -6 -20 -7 0 -10 -10 -7
-25 8 -45 17 -65 27 -60 5 4 9 -1 9 -9 0 -10 6 -13 15 -10 8 4 15 1 15 -6 0
-6 5 -8 10 -5 6 3 10 1 10 -6 0 -8 3 -9 13 0 8 6 17 8 20 4 4 -3 7 -1 7 6 0 7
4 10 9 6 11 -6 48 42 52 70 2 11 0 26 -5 34 -7 11 -6 12 5 6 11 -7 12 -6 2 7
-7 8 -10 18 -6 22 4 4 0 4 -10 0 -11 -4 -17 -1 -17 8 0 20 -55 39 -71 24 -9
-8 -10 -8 -5 2 4 6 3 12 -2 12 -6 0 -13 -7 -16 -16z"/>
<path d="M947 1382 c-9 -2 -15 -7 -12 -12 3 -4 -3 -7 -11 -6 -9 0 -18 -6 -20
-14 -1 -8 -5 -25 -8 -38 -3 -13 -1 -20 5 -17 5 4 9 1 9 -5 0 -10 20 -36 33
-43 2 -1 12 5 22 13 11 8 16 10 12 4 -3 -6 0 -11 8 -11 8 0 13 5 12 11 -1 6 3
10 9 9 7 -1 14 7 17 17 3 13 1 18 -6 13 -7 -4 -6 1 2 10 11 14 11 17 0 17 -12
0 -12 2 0 9 11 7 9 10 -8 16 -11 3 -21 11 -21 16 0 6 -4 8 -9 5 -5 -4 -11 -3
-13 2 -1 4 -11 6 -21 4z"/>
<path d="M2802 1383 c-13 -3 -19 -9 -16 -15 5 -7 1 -9 -9 -5 -11 4 -14 2 -10
-9 3 -7 1 -14 -4 -14 -13 0 -12 -33 1 -42 7 -5 7 -8 -2 -8 -7 0 -10 -5 -7 -10
4 -6 11 -8 16 -5 5 4 9 2 9 -4 0 -13 41 -19 66 -8 22 9 50 67 31 67 -5 0 -7 3
-4 7 6 5 -40 56 -46 52 -1 -1 -12 -4 -25 -6z"/>
<path d="M4044 1379 c-3 -5 -10 -7 -15 -4 -5 4 -12 -1 -15 -9 -3 -9 -11 -13
-17 -9 -6 4 -7 1 -2 -7 4 -7 2 -16 -6 -21 -11 -7 -11 -9 -1 -9 7 0 11 -4 8 -9
-3 -5 1 -22 9 -37 8 -16 15 -23 15 -15 0 9 4 10 13 4 17 -14 46 -8 64 14 8 10
11 11 7 3 -4 -9 -3 -12 2 -7 5 5 9 12 9 15 0 4 4 13 8 20 5 7 4 12 -2 12 -6 0
-11 9 -11 19 0 22 -56 56 -66 40z"/>
<path d="M1564 821 c-3 -3 -14 -6 -27 -8 -12 -2 -25 -10 -30 -18 -4 -9 -13
-13 -18 -9 -5 3 -9 2 -8 -3 4 -15 -13 -43 -22 -37 -5 3 -9 0 -9 -5 0 -6 5 -11
10 -11 6 0 10 -5 10 -11 0 -5 -4 -7 -10 -4 -6 3 -7 -1 -4 -9 4 -10 1 -16 -7
-16 -8 0 -5 -6 7 -16 10 -8 13 -13 7 -9 -7 3 -13 1 -13 -4 0 -6 5 -11 10 -11
6 0 10 -6 10 -14 0 -8 7 -17 16 -20 8 -3 12 -11 9 -16 -4 -6 -1 -9 7 -8 7 2
12 -2 11 -7 -1 -6 10 -10 25 -10 15 1 35 -3 45 -7 10 -5 17 -5 17 2 0 5 5 10
11 10 5 0 7 -5 4 -11 -4 -6 2 -5 13 2 12 7 18 17 16 21 -3 4 4 8 16 8 12 0 18
5 15 10 -3 6 -1 10 5 10 6 0 8 5 5 10 -3 6 -1 10 4 10 6 0 10 3 10 8 -1 4 0 9
1 12 7 18 5 50 -3 50 -5 0 -4 7 3 15 12 14 7 19 -13 16 -5 -1 -6 3 -2 9 3 5
-6 22 -21 37 -14 16 -23 22 -20 16 4 -7 2 -13 -3 -13 -10 0 -14 11 -13 30 0 6
-58 7 -64 1z"/>
<path d="M3414 793 c4 -8 1 -13 -8 -13 -20 0 -57 -31 -50 -42 3 -4 0 -8 -7 -8
-8 0 -7 -5 2 -17 8 -9 9 -14 3 -10 -7 4 -15 0 -18 -9 -8 -22 -8 -26 4 -19 6 3
10 0 10 -8 0 -18 46 -68 54 -59 4 3 11 0 16 -8 7 -11 10 -11 10 -2 0 8 9 11
26 8 16 -3 27 0 31 10 3 7 9 11 14 8 8 -5 13 9 10 29 0 4 7 7 17 8 9 0 12 3 6
5 -6 3 -9 16 -6 29 2 14 -1 32 -8 40 -6 8 -8 20 -4 26 4 7 3 9 -3 6 -5 -3 -24
3 -42 14 -18 11 -30 15 -26 9 9 -14 -8 -13 -24 3 -11 10 -13 10 -7 0z"/>
<path d="M2206 761 c-4 -6 -13 -8 -21 -4 -9 3 -15 -1 -15 -11 0 -10 -5 -13
-17 -9 -11 4 -14 3 -9 -5 4 -7 3 -12 -3 -12 -10 0 -9 -25 1 -36 4 -3 4 -12 2
-19 -3 -7 3 -15 13 -19 10 -3 28 -10 41 -16 13 -5 21 -6 18 -1 -3 5 9 16 27
25 17 8 26 16 18 16 -11 0 -11 3 -1 15 9 11 9 15 1 15 -7 0 -9 5 -6 10 4 6 -4
22 -18 36 -15 14 -28 21 -31 15z"/>
<path d="M1555 130 c-4 -6 -11 -7 -17 -4 -7 4 -8 2 -4 -4 4 -7 2 -12 -3 -12
-6 0 -10 -3 -10 -7 1 -5 0 -10 -1 -13 -7 -20 -7 -40 1 -40 6 0 7 -4 4 -10 -3
-5 1 -10 9 -10 9 0 16 -5 16 -11 0 -5 4 -8 9 -5 5 4 11 0 14 -6 3 -10 8 -9 22
2 17 13 18 13 10 0 -8 -13 -7 -13 8 -1 10 8 15 16 12 19 -2 3 3 11 13 19 10 9
11 11 2 7 -13 -7 -13 -5 -1 9 10 13 10 17 1 17 -9 0 -9 4 1 17 8 10 9 14 2 10
-6 -4 -16 0 -20 8 -11 19 -59 29 -68 15z"/>
</g>
</svg>
