<?xml version="1.0" standalone="no"?>
<!DOCTYPE svg PUBLIC "-//W3C//DTD SVG 20010904//EN"
 "http://www.w3.org/TR/2001/REC-SVG-20010904/DTD/svg10.dtd">
<svg version="1.0" xmlns="http://www.w3.org/2000/svg"
 width="199.000000pt" height="199.000000pt" viewBox="0 0 199.000000 199.000000"
 preserveAspectRatio="xMidYMid meet">
<metadata>
Created by potrace 1.14, written by Peter Selinger 2001-2017
</metadata>
<g transform="translate(0.000000,199.000000) scale(0.100000,-0.100000)"
fill="#000000" stroke="none">
<path d="M1091 1553 c-256 -2 -378 -7 -388 -14 -9 -8 -13 -41 -13 -115 0 -92
2 -104 19 -114 26 -14 664 -14 728 0 96 21 183 115 183 198 0 40 -27 53 -103
50 -29 -2 -220 -4 -426 -5z"/>
<path d="M720 1063 c-8 -3 -18 -11 -22 -17 -13 -19 -9 -201 4 -214 9 -9 93
-12 317 -12 341 0 350 2 421 75 30 30 33 38 24 62 -12 34 -82 89 -132 103 -38
10 -585 13 -612 3z"/>
<path d="M129 1045 c-29 -15 -59 -70 -59 -105 0 -36 31 -90 61 -105 15 -8 48
-15 73 -15 36 0 52 6 78 29 31 27 33 34 33 91 0 57 -2 64 -33 91 -26 24 -41
29 -80 29 -26 -1 -59 -7 -73 -15z"/>
<path d="M701 561 c-14 -25 -14 -186 -1 -212 10 -18 26 -19 455 -19 396 0 445
2 460 16 36 36 -21 150 -99 199 l-49 30 -378 3 c-367 3 -378 2 -388 -17z"/>
</g>
</svg>
