<?xml version="1.0" standalone="no"?>
<!DOCTYPE svg PUBLIC "-//W3C//DTD SVG 20010904//EN"
 "http://www.w3.org/TR/2001/REC-SVG-20010904/DTD/svg10.dtd">
<svg version="1.0" xmlns="http://www.w3.org/2000/svg"
 width="1024.000000pt" height="1024.000000pt" viewBox="0 0 1024.000000 1024.000000"
 preserveAspectRatio="xMidYMid meet">
<metadata>
Created by potrace 1.14, written by Peter Selinger 2001-2017
</metadata>
<g transform="translate(0.000000,1024.000000) scale(0.100000,-0.100000)"
fill="#000000" stroke="none">
<path d="M3905 9649 c-22 -4 -60 -9 -85 -13 -46 -5 -149 -22 -185 -30 -224
-48 -358 -85 -515 -143 -99 -37 -306 -135 -375 -178 -22 -13 -53 -32 -70 -41
-16 -9 -52 -33 -80 -52 -352 -252 -617 -586 -813 -1022 -58 -128 -70 -160 -65
-160 3 0 1 -6 -5 -12 -11 -15 -112 -310 -118 -348 -3 -14 -11 -45 -19 -70 -33
-103 -110 -464 -130 -610 -3 -25 -8 -52 -10 -60 -2 -8 -6 -35 -9 -60 -3 -25
-12 -97 -20 -160 -8 -63 -17 -144 -21 -180 -3 -36 -8 -81 -10 -100 -3 -19 -7
-75 -11 -125 -3 -49 -7 -110 -9 -135 -4 -41 -13 -225 -21 -390 -4 -86 -3 -954
0 -1050 6 -131 18 -373 21 -424 8 -107 16 -213 20 -251 2 -22 7 -76 11 -120 3
-44 8 -88 10 -99 2 -10 6 -51 10 -90 3 -39 8 -73 9 -76 2 -3 6 -37 10 -75 3
-39 8 -77 10 -85 3 -8 7 -33 10 -55 7 -45 41 -245 50 -290 57 -288 123 -538
194 -740 17 -49 33 -97 35 -105 9 -35 131 -311 178 -399 65 -124 107 -194 187
-311 57 -84 88 -124 181 -234 133 -157 344 -332 545 -453 144 -87 423 -216
510 -237 6 -2 48 -15 95 -29 90 -28 268 -75 310 -82 14 -2 70 -13 125 -23 55
-11 125 -23 155 -27 30 -4 64 -9 75 -11 11 -2 47 -6 82 -9 34 -3 70 -7 80 -9
10 -2 61 -7 113 -11 52 -4 111 -9 130 -11 220 -21 959 -20 1186 1 21 2 75 6
119 10 44 3 91 8 105 10 14 2 51 7 83 10 57 5 104 11 162 20 17 3 48 7 70 11
22 3 74 12 115 21 41 8 86 17 100 20 90 16 269 66 405 113 705 244 1191 702
1508 1422 50 113 135 333 142 368 2 8 4 16 5 18 2 1 4 7 5 12 1 6 3 11 5 13 1
1 3 9 5 18 1 8 15 56 30 104 15 49 29 96 30 105 2 8 10 40 19 70 8 30 22 91
31 135 10 44 22 100 27 125 5 25 11 54 13 65 2 11 15 88 30 170 33 186 34 193
39 241 13 106 18 141 21 164 2 14 7 57 11 95 3 39 8 72 9 75 2 3 6 55 10 115
4 61 9 117 10 126 3 17 16 199 20 289 15 305 18 475 19 840 0 375 -4 527 -19
819 -5 89 -14 221 -20 276 -2 22 -7 67 -10 100 -10 105 -23 235 -30 285 -16
120 -37 262 -45 305 -5 28 -12 66 -15 85 -5 30 -29 150 -40 200 -101 452 -223
795 -390 1094 -381 681 -964 1072 -1815 1216 -36 6 -76 13 -90 15 -14 3 -50 7
-80 11 -30 3 -58 8 -61 10 -4 2 -20 -1 -37 -7 -32 -11 -47 -43 -36 -76 22 -70
58 -95 154 -112 244 -42 387 -91 650 -226 56 -29 225 -151 287 -208 178 -163
320 -352 440 -587 54 -105 140 -303 148 -340 2 -8 10 -33 19 -55 17 -45 83
-263 90 -297 2 -13 13 -61 24 -108 34 -138 73 -342 87 -450 6 -51 16 -117 20
-141 2 -9 6 -52 10 -95 3 -43 9 -87 11 -96 3 -9 7 -47 10 -85 3 -37 7 -84 9
-103 3 -34 12 -154 20 -290 14 -219 19 -432 19 -880 0 -506 -9 -841 -29 -1100
-3 -41 -8 -104 -11 -140 -2 -36 -7 -83 -9 -105 -3 -22 -7 -69 -10 -105 -3 -36
-7 -81 -10 -100 -2 -19 -7 -60 -10 -90 -4 -30 -8 -66 -10 -80 -2 -14 -7 -45
-10 -70 -7 -51 -9 -66 -26 -165 -6 -38 -13 -79 -14 -90 -2 -11 -13 -65 -24
-120 -152 -751 -406 -1258 -796 -1591 -52 -45 -248 -184 -259 -184 -2 0 -34
-17 -72 -38 -230 -125 -605 -235 -914 -267 -30 -4 -61 -8 -68 -11 -7 -2 -50
-6 -95 -10 -45 -3 -93 -7 -107 -10 -133 -22 -942 -22 -1165 0 -16 2 -66 7
-109 10 -43 4 -86 9 -95 11 -9 1 -43 6 -76 10 -32 4 -67 8 -76 10 -9 2 -33 6
-53 9 -21 3 -72 13 -114 22 -42 9 -84 17 -92 19 -156 31 -387 114 -546 196
-87 45 -261 151 -274 168 -3 3 -23 19 -45 35 -69 50 -257 247 -321 336 -187
259 -314 533 -419 901 -19 69 -37 135 -39 145 -3 10 -9 39 -15 64 -7 25 -14
56 -17 70 -2 14 -13 68 -24 120 -10 52 -21 109 -24 125 -13 74 -45 295 -51
345 -3 30 -8 66 -10 80 -2 14 -6 54 -10 90 -4 36 -8 76 -10 90 -2 14 -6 66
-10 115 -3 50 -8 106 -10 125 -2 19 -7 85 -10 145 -4 61 -8 135 -10 165 -23
384 -23 1321 0 1695 14 217 32 461 40 515 2 14 6 54 10 90 3 36 8 76 10 90 2
14 7 45 10 70 3 25 8 52 10 60 2 8 7 38 10 66 5 48 8 66 20 124 2 14 7 41 10
60 10 57 35 181 50 240 8 30 16 66 19 80 2 14 20 79 39 145 150 515 383 918
679 1175 228 198 516 337 833 404 66 13 133 27 149 30 69 12 120 110 83 160
-15 20 -46 25 -102 15z"/>
<path d="M4549 9633 c-56 -34 -61 -59 -61 -255 0 -162 1 -183 19 -206 45 -61
35 -60 593 -59 499 2 509 2 537 23 45 34 53 62 54 191 2 253 4 241 -40 284
l-39 39 -518 0 c-462 -1 -522 -2 -545 -17z"/>
<path d="M4558 8501 c-66 -34 -70 -49 -69 -251 2 -200 7 -221 61 -254 25 -14
84 -16 543 -16 l515 0 31 26 c51 42 53 54 53 240 -1 188 -6 212 -55 248 -28
21 -38 21 -538 22 -449 1 -514 -1 -541 -15z"/>
<path d="M4549 7333 c-53 -33 -60 -60 -60 -226 -1 -83 0 -167 0 -185 1 -22 12
-44 35 -70 l34 -37 526 0 c516 0 525 0 553 21 49 36 54 59 54 248 1 148 -2
179 -16 204 -38 64 -21 62 -587 62 -457 -1 -516 -2 -539 -17z"/>
<path d="M4564 6180 c-11 -4 -33 -22 -47 -40 l-27 -32 0 -189 0 -189 34 -38
34 -37 517 -3 c568 -3 562 -3 599 58 15 26 17 55 18 183 0 83 -1 167 -1 185
-1 22 -12 44 -35 70 l-34 37 -519 2 c-285 0 -527 -3 -539 -7z"/>
</g>
</svg>
