<?xml version="1.0" standalone="no"?>
<!DOCTYPE svg PUBLIC "-//W3C//DTD SVG 20010904//EN"
 "http://www.w3.org/TR/2001/REC-SVG-20010904/DTD/svg10.dtd">
<svg version="1.0" xmlns="http://www.w3.org/2000/svg"
 width="2223.000000pt" height="2223.000000pt" viewBox="0 0 2223.000000 2223.000000"
 preserveAspectRatio="xMidYMid meet">
<metadata>
Created by potrace 1.14, written by Peter Selinger 2001-2017
</metadata>
<g transform="translate(0.000000,2223.000000) scale(0.100000,-0.100000)"
fill="#000000" stroke="none">
<path d="M10183 22209 c-21 -13 -37 -34 -43 -57 -7 -24 -10 -157 -8 -384 l3
-348 33 -32 32 -33 893 -3 c606 -2 903 0 927 8 19 5 44 23 55 38 19 26 20 45
23 372 2 227 -1 358 -8 382 -7 24 -22 44 -44 57 -33 21 -41 21 -932 21 -892 0
-899 0 -931 -21z"/>
<path d="M13474 22213 c-12 -2 -36 -16 -54 -32 -29 -23 -34 -35 -38 -84 -11
-141 97 -271 243 -292 86 -13 385 -69 528 -100 215 -47 669 -177 782 -225 11
-5 54 -21 95 -36 41 -15 98 -37 125 -49 28 -12 91 -39 140 -61 89 -38 334
-159 410 -203 192 -110 515 -324 545 -361 3 -3 26 -22 51 -41 334 -252 730
-690 1011 -1119 84 -129 198 -315 198 -324 0 -2 22 -41 48 -87 150 -262 343
-698 485 -1099 74 -208 229 -712 252 -820 2 -8 25 -100 50 -205 26 -104 49
-197 50 -205 4 -17 35 -158 40 -180 5 -25 66 -333 71 -360 3 -14 11 -61 19
-105 28 -153 46 -260 50 -295 3 -19 6 -44 9 -55 5 -23 26 -165 32 -209 2 -17
6 -48 10 -69 3 -20 7 -47 9 -60 11 -93 18 -145 22 -162 2 -11 6 -47 9 -80 3
-33 7 -66 9 -73 3 -8 7 -44 10 -80 3 -37 8 -78 10 -92 2 -14 7 -52 11 -85 3
-33 7 -76 10 -95 2 -19 6 -62 9 -95 3 -33 8 -74 10 -90 5 -37 19 -194 30 -330
3 -38 7 -92 10 -120 2 -27 7 -84 10 -125 3 -41 7 -106 10 -145 3 -38 8 -110
11 -160 3 -49 7 -117 9 -150 6 -104 19 -358 30 -605 4 -86 13 -388 21 -700 12
-452 6 -1513 -11 -2055 -8 -252 -23 -589 -30 -690 -3 -38 -7 -110 -10 -160 -8
-138 -22 -348 -31 -450 -3 -33 -7 -89 -9 -125 -5 -70 -13 -160 -20 -225 -2
-22 -7 -67 -10 -100 -9 -98 -16 -168 -20 -205 -2 -19 -7 -60 -10 -90 -6 -54
-10 -91 -20 -170 -3 -22 -7 -57 -9 -77 -10 -86 -19 -149 -21 -164 -2 -9 -6
-40 -10 -70 -3 -30 -12 -94 -20 -144 -8 -49 -17 -110 -20 -135 -3 -25 -8 -56
-10 -70 -2 -14 -11 -70 -20 -125 -14 -88 -73 -424 -79 -450 -2 -5 -6 -28 -11
-50 -24 -124 -63 -309 -80 -380 -9 -38 -18 -77 -20 -85 -22 -109 -123 -488
-186 -695 -66 -217 -209 -627 -244 -700 -8 -16 -24 -55 -35 -85 -12 -30 -27
-68 -34 -85 -113 -250 -151 -331 -211 -450 -76 -147 -77 -150 -170 -310 -308
-533 -708 -1002 -1165 -1366 -544 -432 -1171 -732 -1970 -943 -52 -13 -106
-27 -120 -30 -14 -3 -34 -7 -45 -10 -11 -2 -54 -12 -95 -21 -94 -21 -99 -22
-130 -29 -28 -6 -37 -8 -195 -37 -60 -10 -126 -22 -145 -25 -19 -3 -60 -9 -90
-14 -30 -5 -77 -12 -105 -15 -27 -4 -77 -10 -110 -15 -33 -5 -87 -12 -120 -15
-33 -3 -71 -8 -85 -10 -14 -2 -50 -6 -80 -9 -30 -3 -77 -8 -105 -11 -259 -26
-595 -48 -915 -61 -507 -20 -1433 -19 -1955 1 -295 11 -547 25 -715 40 -25 2
-81 6 -125 10 -44 3 -91 8 -105 10 -14 2 -56 7 -95 10 -71 5 -96 8 -240 26
-164 20 -202 25 -380 54 -55 9 -111 18 -125 20 -14 2 -50 9 -80 15 -30 6 -68
13 -85 16 -59 10 -311 66 -360 79 -27 8 -61 16 -75 19 -44 8 -241 65 -385 112
-606 196 -1134 478 -1580 843 -257 211 -555 525 -756 798 -111 150 -369 547
-369 567 0 2 -16 33 -36 68 -60 105 -244 478 -244 494 0 2 -11 28 -25 57 -66
144 -192 479 -265 702 -42 128 -53 166 -103 335 -25 84 -96 347 -102 379 -2 9
-13 54 -25 101 -12 47 -24 96 -26 110 -3 14 -11 51 -19 83 -8 32 -17 73 -21
90 -3 18 -11 61 -19 97 -8 36 -17 76 -19 90 -3 14 -19 97 -36 185 -17 88 -33
174 -36 190 -2 17 -9 57 -15 90 -6 33 -12 71 -14 85 -2 14 -6 39 -9 55 -3 17
-8 50 -11 75 -3 25 -7 52 -10 60 -2 8 -6 35 -9 60 -4 25 -8 56 -10 70 -2 14
-7 47 -11 73 -4 27 -8 56 -10 65 -1 10 -6 42 -9 73 -4 31 -9 67 -11 79 -2 12
-7 49 -10 83 -3 34 -8 69 -10 77 -2 8 -6 46 -10 83 -3 37 -8 76 -9 85 -2 9 -7
49 -10 87 -4 39 -9 86 -11 105 -6 49 -14 134 -20 205 -3 33 -7 83 -10 110 -7
74 -14 151 -20 235 -3 41 -8 95 -10 120 -2 25 -7 88 -10 140 -3 52 -8 120 -10
150 -7 90 -16 249 -20 340 -4 81 -10 235 -20 440 -23 491 -33 1638 -21 2235
11 479 28 919 51 1295 2 41 7 118 10 170 3 52 8 118 10 145 2 28 7 88 10 135
3 47 7 108 10 135 3 28 7 77 10 110 2 33 7 80 9 105 6 55 17 170 21 225 4 49
14 138 20 185 2 19 7 62 10 95 3 33 10 96 16 140 9 78 14 116 24 193 12 97 16
129 20 152 3 14 7 45 10 70 3 25 7 56 10 70 2 14 7 45 10 70 3 25 10 70 15
100 5 30 12 73 15 95 5 34 57 337 69 400 2 11 6 36 10 55 9 49 13 74 32 163 8
42 18 90 20 105 3 15 19 88 35 162 17 74 33 146 35 160 3 14 8 34 11 45 4 11
7 22 8 25 1 3 4 19 8 35 4 17 9 40 12 53 8 43 106 407 146 542 110 370 267
798 415 1130 83 187 285 571 379 721 5 9 19 32 29 50 53 96 339 501 391 555 5
6 25 29 43 52 129 159 335 373 492 512 47 41 87 78 90 81 3 3 52 43 110 88 58
46 116 92 130 103 58 46 345 232 465 301 442 253 956 448 1545 586 199 47 200
47 390 81 209 37 249 51 304 104 51 51 76 101 83 171 7 65 -8 107 -49 136 -26
19 -39 21 -111 15 -45 -3 -91 -8 -102 -10 -11 -2 -41 -6 -66 -10 -25 -4 -57
-9 -70 -11 -13 -2 -40 -6 -59 -9 -19 -3 -75 -12 -125 -21 -49 -9 -103 -18
-120 -21 -16 -2 -37 -7 -45 -9 -8 -2 -30 -7 -49 -10 -19 -3 -37 -7 -40 -9 -3
-2 -26 -7 -51 -10 -25 -3 -92 -18 -150 -32 -58 -14 -116 -28 -130 -30 -14 -3
-48 -12 -76 -20 -28 -8 -60 -16 -70 -19 -185 -38 -723 -223 -954 -327 -25 -11
-74 -34 -110 -50 -224 -102 -694 -367 -708 -400 -2 -5 -8 -8 -13 -8 -12 0
-196 -132 -319 -229 -211 -166 -507 -444 -650 -612 -30 -35 -69 -80 -87 -99
-32 -36 -182 -224 -218 -274 -11 -16 -34 -47 -51 -70 -82 -109 -266 -392 -336
-516 -123 -217 -162 -291 -248 -466 -275 -560 -495 -1174 -684 -1904 -47 -183
-143 -596 -160 -690 -3 -14 -10 -50 -15 -80 -6 -30 -13 -66 -16 -80 -2 -14 -9
-45 -14 -70 -13 -58 -79 -433 -86 -485 -2 -22 -6 -49 -9 -60 -3 -18 -11 -69
-21 -135 -9 -61 -46 -319 -51 -355 -2 -22 -7 -51 -9 -65 -2 -14 -7 -53 -10
-87 -3 -34 -7 -70 -9 -80 -2 -10 -7 -47 -11 -83 -4 -36 -8 -72 -10 -80 -1 -8
-6 -49 -10 -90 -3 -41 -8 -86 -10 -100 -2 -14 -6 -54 -10 -90 -3 -36 -8 -81
-10 -100 -4 -37 -12 -118 -20 -210 -3 -30 -7 -80 -10 -110 -11 -128 -17 -209
-30 -375 -2 -33 -7 -103 -10 -155 -3 -52 -7 -120 -10 -150 -3 -30 -7 -107 -10
-170 -3 -63 -8 -146 -10 -185 -4 -63 -9 -171 -20 -460 -28 -689 -27 -2442 0
-3005 3 -47 7 -152 11 -235 3 -82 7 -175 9 -205 1 -30 6 -113 9 -185 4 -71 8
-148 11 -170 2 -22 7 -94 10 -160 4 -66 8 -136 10 -155 2 -19 6 -73 10 -120 3
-47 8 -105 10 -130 2 -25 7 -79 10 -120 4 -41 8 -93 10 -115 5 -70 16 -179 20
-210 2 -16 6 -61 10 -100 3 -38 8 -83 10 -100 2 -16 7 -57 10 -90 3 -33 8 -71
10 -85 2 -14 7 -54 10 -90 4 -36 9 -73 10 -82 2 -9 7 -48 10 -85 4 -37 9 -70
10 -73 2 -3 6 -37 10 -75 4 -39 9 -79 11 -90 6 -29 13 -74 19 -120 3 -22 10
-71 16 -110 6 -38 12 -79 13 -90 4 -25 17 -104 22 -130 3 -11 7 -38 9 -60 3
-22 7 -51 10 -65 12 -59 23 -116 41 -225 3 -16 18 -96 34 -177 16 -81 31 -157
34 -170 2 -13 12 -57 21 -98 9 -41 19 -86 21 -100 12 -61 99 -411 140 -565
114 -423 305 -985 429 -1260 12 -27 42 -95 66 -150 99 -228 318 -645 418 -795
23 -34 41 -63 41 -66 0 -9 146 -221 235 -340 233 -315 438 -533 801 -855 105
-93 420 -316 592 -420 399 -240 851 -435 1357 -584 142 -42 476 -127 540 -138
17 -3 66 -13 110 -22 44 -9 89 -19 100 -21 11 -2 33 -6 48 -10 16 -3 38 -7 50
-8 22 -3 94 -15 132 -22 31 -6 194 -32 245 -39 25 -3 56 -8 70 -10 14 -2 50
-7 80 -10 104 -13 125 -15 160 -20 43 -5 115 -13 195 -20 33 -3 71 -7 85 -10
14 -2 61 -7 105 -10 44 -3 98 -8 120 -10 22 -2 85 -7 140 -10 55 -3 120 -8
145 -10 25 -3 99 -7 165 -10 66 -3 156 -8 200 -10 541 -28 2168 -28 2570 0 33
3 112 7 175 10 63 3 135 8 160 10 25 2 91 6 148 10 57 3 112 8 123 10 11 2 57
7 102 10 45 3 98 8 117 10 19 2 62 7 95 10 60 6 129 13 175 20 14 2 50 6 80
10 30 4 66 8 80 10 14 2 45 7 70 10 50 7 212 31 275 40 22 4 121 22 220 41
193 37 193 37 300 60 38 9 77 17 85 19 36 7 267 67 290 75 14 4 54 16 90 25
36 10 72 20 80 23 8 3 20 6 27 8 47 9 415 137 445 154 10 6 22 10 27 10 22 0
313 129 496 220 571 285 1041 638 1468 1102 86 94 231 265 277 328 14 18 41
54 60 79 353 458 719 1159 962 1846 109 306 230 700 283 915 2 8 26 107 54
220 28 113 52 216 55 230 2 14 16 79 31 145 25 114 40 189 51 245 3 14 11 57
19 95 7 39 16 86 19 105 3 19 8 47 11 63 13 69 40 226 49 282 2 17 9 59 15 95
5 36 13 88 17 115 3 28 7 57 9 65 3 16 14 90 20 130 2 14 7 52 10 85 4 33 8
67 10 75 2 8 7 41 10 73 4 32 8 67 10 77 2 10 7 50 10 87 4 37 8 75 10 83 2 8
7 46 11 85 3 38 7 76 9 85 2 9 6 56 10 106 4 49 9 91 11 95 1 3 6 43 9 89 4
46 8 95 10 109 1 15 6 71 10 126 3 55 8 107 10 115 3 8 7 60 10 115 4 55 8
116 10 135 2 19 6 85 10 145 4 61 9 130 10 155 2 25 7 104 10 175 4 72 8 155
10 185 6 91 16 339 32 780 10 284 10 2009 0 2310 -8 238 -14 392 -23 605 -3
72 -7 171 -9 220 -2 50 -7 133 -10 185 -3 52 -8 124 -10 160 -3 36 -7 108 -10
160 -8 147 -16 249 -30 410 -2 30 -7 91 -10 135 -4 44 -8 91 -10 105 -2 14 -6
65 -10 114 -4 50 -8 97 -10 105 -1 9 -6 54 -10 101 -4 47 -8 92 -10 100 -2 8
-6 53 -10 100 -4 47 -9 87 -10 90 -2 3 -6 37 -10 75 -3 39 -8 81 -10 95 -2 14
-6 45 -9 70 -13 110 -18 147 -21 170 -2 14 -7 48 -10 75 -3 28 -10 75 -15 105
-5 30 -11 75 -14 100 -4 25 -8 54 -10 65 -2 11 -7 40 -10 65 -3 25 -8 54 -10
65 -2 11 -7 40 -10 65 -3 25 -8 56 -11 70 -2 14 -16 93 -30 175 -14 83 -27
157 -30 165 -2 8 -6 32 -9 52 -3 20 -17 95 -32 165 -14 70 -28 138 -30 151
-84 424 -306 1263 -384 1447 -4 11 -29 83 -56 160 -26 77 -82 228 -125 335
-109 274 -148 362 -273 615 -335 678 -718 1206 -1219 1682 -53 50 -209 183
-342 292 -23 19 -119 89 -151 111 -115 79 -293 194 -354 230 -41 24 -95 55
-120 70 -46 27 -332 169 -430 213 -266 121 -748 285 -1030 352 -8 2 -63 15
-122 29 -100 25 -355 79 -423 90 -30 5 -187 32 -235 40 -43 8 -302 45 -355 51
-90 10 -110 11 -131 8z"/>
<path d="M10188 20592 c-57 -35 -59 -48 -56 -437 l3 -355 33 -32 32 -33 893
-3 c606 -2 903 0 927 8 19 5 44 23 55 38 19 26 20 45 23 372 2 227 -1 358 -8
382 -7 24 -22 44 -44 57 -33 21 -40 21 -932 21 -829 -1 -901 -2 -926 -18z"/>
<path d="M10193 18984 c-61 -30 -63 -45 -63 -424 0 -296 2 -347 16 -376 33
-70 -20 -66 969 -66 990 0 936 -4 969 66 15 32 16 76 14 388 -3 335 -4 354
-23 380 -11 15 -33 32 -49 38 -19 7 -325 10 -915 10 -784 0 -890 -2 -918 -16z"/>
<path d="M10201 17374 c-17 -7 -40 -28 -51 -46 -19 -31 -20 -50 -20 -381 0
-379 1 -385 57 -423 27 -18 66 -18 923 -19 991 0 938 -4 973 65 16 32 17 67
15 392 l-3 358 -33 32 -32 33 -899 1 c-714 1 -905 -2 -930 -12z"/>
<path d="M10204 15755 c-17 -7 -40 -25 -52 -40 -21 -26 -21 -36 -22 -384 0
-356 0 -357 22 -391 16 -23 36 -38 63 -45 28 -8 309 -11 920 -10 842 1 881 1
908 19 56 38 57 44 57 423 0 374 -1 378 -53 417 -28 21 -32 21 -921 22 -704 2
-898 -1 -922 -11z"/>
<path d="M10195 14139 c-63 -33 -65 -46 -65 -429 0 -371 1 -375 53 -414 28
-21 32 -21 915 -23 530 -1 900 3 918 8 17 5 42 21 55 35 l24 26 2 365 c3 357
2 366 -18 395 -12 16 -33 34 -48 40 -18 8 -296 12 -916 12 -797 1 -892 0 -920
-15z"/>
</g>
</svg>
