<?xml version="1.1" encoding="UTF-8"?>
<svg xmlns="http://www.w3.org/2000/svg" viewBox="0 0 24 24" id="root" xml:space="preserve">
    <g fill="currentColor">
        <path d="M4,9h10v-5H4v5ZM5,5.5c0-.28.22-.5.5-.5h7c.28,0,.5.22.5.5v2c0,.28-.22.5-.5.5h-7c-.28,0-.5-.22-.5-.5v-2Z"/>
        <path d="M18,6v1h2.5c.28,0,.5.22.5.5v13c0,.28-.22.5-.5.5h-1c-.28,0-.5-.22-.5-.5v-6.5h-3V2H2v20h14v-6.5c0-.28.22-.5.5-.5h1c.28,0,.5.22.5.5v6.5h4V6h-4ZM15,20.5c0,.28-.22.5-.5.5H3.5c-.28,0-.5-.22-.5-.5V3.5c0-.28.22-.5.5-.5h11c.28,0,.5.22.5.5v17Z"/>
        <path d="M11,10l-5.5,6h2.25l-.75,4,5.5-6h-2.25l.75-4ZM10.8,14.75l-2.58,2.81.27-1.42.17-.89h-1.45l2.58-2.81-.27,1.42-.17.89h1.45Z"/>
    </g>
</svg>
