<?xml version="1.0" standalone="no"?>
<!DOCTYPE svg PUBLIC "-//W3C//DTD SVG 20010904//EN"
 "http://www.w3.org/TR/2001/REC-SVG-20010904/DTD/svg10.dtd">
<svg version="1.0" xmlns="http://www.w3.org/2000/svg"
 width="512.000000pt" height="512.000000pt" viewBox="0 0 512.000000 512.000000"
 preserveAspectRatio="xMidYMid meet">
<metadata>
Created by potrace 1.14, written by Peter Selinger 2001-2017
</metadata>
<g transform="translate(0.000000,512.000000) scale(0.100000,-0.100000)"
fill="#000000" stroke="none">
<path d="M185 4427 c-122 -28 -186 -151 -181 -350 4 -121 17 -198 56 -318 119
-364 398 -732 717 -947 34 -23 115 -68 180 -101 149 -74 257 -114 440 -161 41
-10 42 -11 38 -49 -3 -27 -19 -59 -56 -107 -62 -81 -120 -202 -143 -297 -20
-84 -28 -235 -15 -302 5 -27 11 -59 13 -70 7 -34 37 -118 58 -160 127 -251
406 -480 743 -609 39 -15 95 -38 126 -52 31 -13 61 -24 68 -24 6 0 20 -18 30
-39 49 -96 171 -156 311 -155 74 0 94 4 150 32 71 34 131 87 150 133 7 16 17
29 22 29 6 0 36 11 67 24 31 13 94 39 140 57 217 84 383 191 536 344 217 217
301 441 266 706 -22 167 -88 311 -200 438 -12 14 -21 38 -21 57 0 31 3 34 43
44 23 6 103 30 177 54 278 89 495 220 690 416 125 125 133 135 228 270 129
184 217 369 269 568 20 78 25 122 26 227 1 114 -2 137 -22 189 -42 105 -90
142 -210 161 -60 10 -275 -55 -413 -126 -431 -219 -919 -721 -1323 -1359 -43
-69 -80 -126 -80 -127 -1 -2 -53 3 -116 11 -191 23 -686 18 -856 -9 -31 -5
-34 -1 -85 78 -198 307 -377 548 -558 752 -48 54 -287 293 -330 330 -264 227
-533 380 -766 436 -85 20 -104 21 -169 6z"/>
</g>
</svg>
